<svg width="259" height="70" viewBox="0 0 259 70" fill="none" xmlns="http://www.w3.org/2000/svg">
<g clip-path="url(#clip0_1278_1086)">
<path d="M89.8118 52.0747C89.7503 51.1439 89.5044 50.415 89.0565 49.9056C88.6087 49.3875 88.073 49.1328 87.4407 49.1328C86.6064 49.1328 85.9565 49.5631 85.4823 50.4589C85.0081 51.3546 84.771 52.4172 84.771 53.6467C84.771 54.8761 85.0081 55.9387 85.4823 56.8257C85.9565 57.7127 86.6152 58.1605 87.4407 58.1605C88.1169 58.1605 88.6701 57.8356 89.1092 57.1858C89.5483 56.5359 89.7766 55.7016 89.8206 54.6654H88.8633C88.8282 55.2889 88.6877 55.8246 88.4506 56.2637C88.2135 56.7028 87.871 56.9223 87.4407 56.9223C86.8435 56.9223 86.4132 56.5798 86.141 55.9036C85.8775 55.2274 85.7458 54.4722 85.7458 53.6379C85.7458 52.8036 85.8775 52.0572 86.141 51.3722C86.4044 50.696 86.8347 50.3535 87.4407 50.3535C87.8446 50.3535 88.1608 50.5116 88.3803 50.8365C88.5999 51.1614 88.7492 51.5654 88.837 52.0659H89.8118V52.0747Z" fill="#005CA9"/>
<path d="M90.936 57.9597H91.9108V54.0693H94.4488V57.9597H95.4323V49.3359H94.4488V52.7609H91.9108V49.3359H90.936V57.9597Z" fill="#005CA9"/>
<path d="M96.8198 54.8509C96.8198 55.9574 97.0306 56.7829 97.4521 57.3362C97.8736 57.8894 98.4269 58.1617 99.1119 58.1617C99.7969 58.1617 100.35 57.8894 100.772 57.3362C101.193 56.7829 101.404 55.9574 101.404 54.8509V49.3359H100.429V54.3591C100.429 54.9387 100.368 55.5008 100.245 56.0453C100.122 56.5897 99.7442 56.862 99.1119 56.862C98.4796 56.862 98.102 56.5897 97.979 56.0453C97.8561 55.5008 97.7946 54.9387 97.7946 54.3591V49.3359H96.8198V54.8509V54.8509Z" fill="#005CA9"/>
<path d="M102.774 57.9597H103.705V51.6192H103.731L106.269 57.9597H107.305V49.3359H106.374V55.6852H106.357L103.81 49.3359H102.774V57.9597Z" fill="#005CA9"/>
<path d="M113.479 53.4193H111.099V54.5697H112.583C112.583 55.2986 112.442 55.8782 112.17 56.3085C111.898 56.7389 111.52 56.9408 111.02 56.9321C110.423 56.9321 109.992 56.5808 109.72 55.9046C109.457 55.2284 109.325 54.4731 109.325 53.6476C109.325 52.8222 109.457 52.0669 109.72 51.3819C109.984 50.7057 110.414 50.3632 111.02 50.3632C111.371 50.3632 111.687 50.5037 111.968 50.7935C112.249 51.0834 112.407 51.5049 112.46 52.0757H113.417C113.347 51.1009 113.084 50.3632 112.627 49.8715C112.17 49.3797 111.635 49.125 111.029 49.125C110.194 49.125 109.544 49.5729 109.07 50.4598C108.596 51.3468 108.359 52.4094 108.359 53.6389C108.359 54.8683 108.596 55.9309 109.07 56.8179C109.544 57.7048 110.194 58.1527 111.029 58.1527C111.371 58.1527 111.67 58.0649 111.924 57.8893C112.188 57.7136 112.442 57.3975 112.706 56.9321L112.855 57.942H113.479V53.4018V53.4193Z" fill="#005CA9"/>
<path d="M123.49 52.0747C123.429 51.1439 123.183 50.415 122.735 49.9056C122.287 49.3875 121.751 49.1328 121.119 49.1328C120.285 49.1328 119.635 49.5631 119.161 50.4589C118.686 51.3546 118.449 52.4172 118.449 53.6467C118.449 54.8761 118.686 55.9387 119.161 56.8257C119.635 57.7127 120.285 58.1605 121.119 58.1605C121.795 58.1605 122.357 57.8356 122.787 57.1858C123.218 56.5359 123.455 55.7016 123.499 54.6654H122.542C122.506 55.2889 122.366 55.8246 122.129 56.2637C121.892 56.7028 121.549 56.9223 121.119 56.9223C120.522 56.9223 120.091 56.5798 119.819 55.9036C119.556 55.2274 119.424 54.4722 119.424 53.6379C119.424 52.8036 119.556 52.0572 119.819 51.3722C120.083 50.696 120.513 50.3535 121.119 50.3535C121.523 50.3535 121.839 50.5116 122.059 50.8365C122.278 51.1614 122.427 51.5654 122.515 52.0659H123.49V52.0747Z" fill="#005CA9"/>
<path d="M124.605 57.9597H125.589V54.0693H128.127V57.9597H129.102V49.3359H128.127V52.7609H125.589V49.3359H124.605V57.9597Z" fill="#005CA9"/>
<path d="M130.56 57.9597H134.634V56.6512H131.543V54.1308H134.353V52.9014H131.543V50.6356H134.582V49.3359H130.56V57.9597Z" fill="#005CA9"/>
<path d="M138.147 49.1328C137.313 49.1328 136.663 49.5807 136.189 50.4677C135.715 51.3546 135.478 52.4172 135.478 53.6467C135.478 54.8761 135.715 55.9387 136.189 56.8257C136.663 57.7127 137.322 58.1605 138.147 58.1605C138.973 58.1605 139.64 57.7127 140.114 56.8257C140.589 55.9387 140.826 54.8761 140.826 53.6467C140.826 52.4172 140.589 51.3546 140.114 50.4677C139.64 49.5807 138.99 49.1328 138.147 49.1328V49.1328ZM138.147 50.3623C138.744 50.3623 139.183 50.7048 139.447 51.381C139.71 52.0572 139.842 52.8124 139.842 53.6467C139.842 54.4809 139.71 55.2274 139.447 55.9124C139.183 56.5886 138.744 56.9311 138.147 56.9311C137.55 56.9311 137.12 56.5886 136.848 55.9124C136.584 55.2362 136.452 54.4809 136.452 53.6467C136.452 52.8124 136.584 52.0659 136.848 51.381C137.111 50.7048 137.541 50.3623 138.147 50.3623V50.3623Z" fill="#005CA9"/>
<path d="M141.862 57.9597H142.793V51.6192H142.819L145.357 57.9597H146.393V49.3359H145.462V55.6852H145.445L142.898 49.3359H141.862V57.9597Z" fill="#005CA9"/>
<path d="M152.567 53.4193H150.187V54.5697H151.671C151.671 55.2986 151.53 55.8782 151.258 56.3085C150.986 56.7389 150.608 56.9408 150.108 56.9321C149.511 56.9321 149.08 56.5808 148.808 55.9046C148.545 55.2284 148.413 54.4731 148.413 53.6476C148.413 52.8222 148.545 52.0669 148.808 51.3819C149.071 50.7057 149.502 50.3632 150.108 50.3632C150.459 50.3632 150.775 50.5037 151.056 50.7935C151.337 51.0834 151.495 51.5049 151.548 52.0757H152.505C152.435 51.1009 152.171 50.3632 151.715 49.8715C151.258 49.3797 150.722 49.125 150.116 49.125C149.282 49.125 148.632 49.5729 148.158 50.4598C147.684 51.3468 147.447 52.4094 147.447 53.6389C147.447 54.8683 147.684 55.9309 148.158 56.8179C148.632 57.7048 149.282 58.1527 150.116 58.1527C150.459 58.1527 150.758 58.0649 151.012 57.8893C151.276 57.7136 151.53 57.3975 151.794 56.9321L151.943 57.942H152.567V53.4018V53.4193Z" fill="#005CA9"/>
<path d="M157.827 57.9597H158.811V54.1308H161.331V52.9014H158.811V50.6356H161.682V49.3359H157.827V57.9597Z" fill="#005CA9"/>
<path d="M162.754 57.9597H163.729V49.3359H162.754V57.9597Z" fill="#005CA9"/>
<path d="M166.188 50.5654H167.777C168.032 50.5654 168.26 50.6444 168.453 50.8113C168.647 50.9781 168.743 51.3294 168.743 51.8827C168.743 52.3305 168.664 52.673 168.497 52.9101C168.33 53.1473 168.093 53.2614 167.795 53.2614H166.188V50.5654ZM165.213 57.9509H166.188V54.4031H167.628C168.076 54.4031 168.374 54.5875 168.515 54.9563C168.664 55.3251 168.734 55.896 168.734 56.6863C168.734 56.8971 168.734 57.1166 168.752 57.3362C168.77 57.5645 168.805 57.7665 168.884 57.9509H169.929C169.823 57.7753 169.744 57.4767 169.7 57.0552C169.648 56.6336 169.63 56.177 169.63 55.6764C169.63 54.9914 169.534 54.526 169.34 54.2801C169.147 54.0342 168.972 53.8937 168.805 53.8586V53.8322C168.892 53.7795 169.068 53.6127 169.332 53.3317C169.595 53.0419 169.727 52.4886 169.727 51.6631C169.727 50.9342 169.569 50.3634 169.261 49.9507C168.954 49.5379 168.489 49.3359 167.883 49.3359H165.213V57.9597V57.9509Z" fill="#005CA9"/>
<path d="M171 57.9597H175.075V56.6512H171.975V54.1308H174.794V52.9014H171.975V50.6356H175.013V49.3359H171V57.9597Z" fill="#005CA9"/>
<path d="M179.782 55.0781C179.791 56.1495 180.028 56.9311 180.475 57.4229C180.932 57.9146 181.477 58.1605 182.109 58.1605C182.671 58.1605 183.172 57.9498 183.637 57.537C184.094 57.1155 184.331 56.4305 184.331 55.4645C184.331 55.0166 184.243 54.5775 184.067 54.156C183.892 53.7345 183.619 53.4359 183.251 53.2691C183.101 53.2076 182.811 53.0846 182.364 52.9002C181.924 52.7158 181.679 52.6192 181.635 52.6016C181.433 52.5138 181.275 52.3821 181.152 52.2065C181.029 52.0308 180.967 51.7937 180.967 51.4951C180.967 51.056 181.081 50.7662 181.31 50.6082C181.538 50.4501 181.766 50.3711 181.986 50.3711C182.328 50.3711 182.609 50.4852 182.829 50.7135C183.049 50.9419 183.172 51.3371 183.189 51.8903H184.164C184.164 50.9858 183.953 50.3008 183.532 49.8354C183.11 49.3699 182.609 49.1328 182.021 49.1328C181.512 49.1328 181.046 49.3436 180.625 49.7563C180.194 50.1691 179.984 50.8101 179.984 51.6708C179.984 52.1099 180.072 52.5402 180.247 52.9441C180.423 53.3481 180.748 53.6555 181.222 53.8574C181.608 54.0155 181.933 54.1472 182.197 54.2526C182.46 54.3492 182.689 54.4634 182.882 54.5688C182.996 54.6302 183.101 54.7444 183.198 54.9025C183.294 55.0605 183.338 55.3064 183.338 55.6314C183.338 55.9563 183.251 56.2549 183.075 56.5271C182.899 56.7994 182.592 56.9399 182.162 56.9399C181.766 56.9399 181.441 56.7994 181.16 56.5096C180.888 56.2198 180.748 55.7543 180.748 55.0869H179.773L179.782 55.0781Z" fill="#005CA9"/>
<path d="M185.428 57.9597H189.503V56.6512H186.412V54.1308H189.222V52.9014H186.412V50.6356H189.45V49.3359H185.428V57.9597Z" fill="#005CA9"/>
<path d="M191.62 50.5654H193.209C193.464 50.5654 193.692 50.6444 193.886 50.8113C194.079 50.9781 194.175 51.3294 194.175 51.8827C194.175 52.3305 194.096 52.673 193.929 52.9101C193.763 53.1473 193.525 53.2614 193.218 53.2614H191.62V50.5654V50.5654ZM190.645 57.9509H191.62V54.4031H193.06C193.508 54.4031 193.806 54.5875 193.947 54.9563C194.096 55.3251 194.167 55.896 194.167 56.6863C194.167 56.8971 194.167 57.1166 194.184 57.3362C194.193 57.5645 194.237 57.7665 194.316 57.9509H195.361C195.255 57.7753 195.176 57.4767 195.133 57.0552C195.08 56.6336 195.062 56.177 195.062 55.6764C195.062 54.9914 194.966 54.526 194.772 54.2801C194.579 54.0342 194.404 53.8937 194.237 53.8586V53.8322C194.325 53.7795 194.5 53.6127 194.764 53.3317C195.027 53.0419 195.159 52.4886 195.159 51.6631C195.159 50.9342 195.001 50.3634 194.693 49.9507C194.386 49.5379 193.921 49.3359 193.315 49.3359H190.645V57.9597V57.9509Z" fill="#005CA9"/>
<path d="M197.187 57.9597H198.276L200.182 49.3359H199.19L197.758 56.1594H197.741L196.344 49.3359H195.326L197.187 57.9597Z" fill="#005CA9"/>
<path d="M201.025 57.9597H202V49.3359H201.025V57.9597Z" fill="#005CA9"/>
<path d="M208.068 52.0747C208.015 51.1439 207.761 50.415 207.313 49.9056C206.865 49.3875 206.329 49.1328 205.697 49.1328C204.863 49.1328 204.213 49.5631 203.739 50.4589C203.264 51.3546 203.027 52.4172 203.027 53.6467C203.027 54.8761 203.264 55.9387 203.739 56.8257C204.213 57.7127 204.872 58.1605 205.697 58.1605C206.373 58.1605 206.926 57.8356 207.366 57.1858C207.805 56.5359 208.033 55.7016 208.077 54.6654H207.12C207.085 55.2889 206.944 55.8246 206.707 56.2637C206.47 56.7028 206.127 56.9223 205.697 56.9223C205.1 56.9223 204.67 56.5798 204.397 55.9036C204.134 55.2274 204.002 54.4722 204.002 53.6379C204.002 52.8036 204.134 52.0572 204.397 51.3722C204.661 50.696 205.1 50.3535 205.697 50.3535C206.101 50.3535 206.417 50.5116 206.637 50.8365C206.856 51.1614 207.006 51.5654 207.093 52.0659H208.068V52.0747Z" fill="#005CA9"/>
<path d="M209.218 57.9597H213.293V56.6512H210.193V54.1308H213.012V52.9014H210.193V50.6356H213.232V49.3359H209.218V57.9597Z" fill="#005CA9"/>
<path d="M220.327 50.821H220.354L221.188 54.527H219.484L220.327 50.821ZM217.684 57.9519H218.694L219.221 55.6686H221.451L221.978 57.9519H223.023L220.872 49.3281H219.836L217.693 57.9519H217.684Z" fill="#005CA9"/>
<path d="M227.853 52.0747C227.792 51.1439 227.546 50.415 227.098 49.9056C226.65 49.3875 226.114 49.1328 225.482 49.1328C224.648 49.1328 223.998 49.5631 223.524 50.4589C223.05 51.3546 222.812 52.4172 222.812 53.6467C222.812 54.8761 223.05 55.9387 223.524 56.8257C223.998 57.7127 224.657 58.1605 225.482 58.1605C226.158 58.1605 226.712 57.8356 227.151 57.1858C227.59 56.5359 227.818 55.7016 227.862 54.6654H226.905C226.87 55.2889 226.729 55.8246 226.492 56.2637C226.255 56.7028 225.912 56.9223 225.482 56.9223C224.885 56.9223 224.455 56.5798 224.182 55.9036C223.919 55.2274 223.787 54.4722 223.787 53.6379C223.787 52.8036 223.919 52.0572 224.182 51.3722C224.446 50.696 224.876 50.3535 225.482 50.3535C225.886 50.3535 226.202 50.5116 226.422 50.8365C226.641 51.1614 226.791 51.5654 226.878 52.0659H227.853V52.0747Z" fill="#005CA9"/>
<path d="M230.567 50.821H230.593L231.428 54.527H229.724L230.567 50.821V50.821ZM227.924 57.9519H228.934L229.461 55.6686H231.691L232.218 57.9519H233.263L231.112 49.3281H230.075L227.933 57.9519H227.924Z" fill="#005CA9"/>
<path d="M235.046 50.5664H236.003C236.767 50.5664 237.267 50.8649 237.505 51.4621C237.742 52.0593 237.856 52.7882 237.856 53.6488C237.856 54.5094 237.742 55.2383 237.505 55.8355C237.267 56.4326 236.767 56.7312 236.003 56.7312H235.046V50.5751V50.5664ZM234.071 57.9519H236.38C237.241 57.9519 237.865 57.5304 238.26 56.6873C238.655 55.8443 238.848 54.8256 238.848 53.64C238.848 52.4545 238.655 51.4358 238.26 50.5927C237.873 49.7497 237.241 49.3281 236.38 49.3281H234.071V57.9519V57.9519Z" fill="#005CA9"/>
<path d="M239.911 57.9597H243.977V56.6512H240.886V54.1308H243.696V52.9014H240.886V50.6356H243.924V49.3359H239.911V57.9597Z" fill="#005CA9"/>
<path d="M245.198 57.9597H246.129V51.3031H246.137L247.692 57.9597H248.491L250.037 51.3031H250.054V57.9597H250.985V49.3359H249.624L248.122 56.0804H248.113L246.568 49.3359H245.198V57.9597Z" fill="#005CA9"/>
<path d="M253.988 57.9597H254.972V54.5787L257.053 49.3359H255.964L254.506 53.1999L253.031 49.3359H251.898L253.988 54.5787V57.9597Z" fill="#005CA9"/>
<path d="M86.8437 18.4308H94.3785C93.6057 19.7832 92.2885 20.8809 90.4179 21.7064C88.5474 22.5319 86.6417 22.9622 84.7009 22.9885L86.8788 24.9557C88.846 24.9557 90.9185 24.578 93.1227 23.814C95.3182 23.05 96.7496 21.9874 97.3995 20.6087C98.0757 21.9611 99.5247 23.0237 101.729 23.7965C103.942 24.5693 105.997 24.9557 107.92 24.9557L110.098 22.9885C108.184 22.9622 106.287 22.5407 104.416 21.7064C102.546 20.8809 101.211 19.7832 100.42 18.4308H107.99V15.7699H99.7881V12.6172H95.0196V15.7699H86.8525V18.4308H86.8437ZM83.8315 26.3871V28.9777H95.0547V31.1908C93.5618 31.586 92.3324 32.3148 91.3751 33.3687C90.4179 34.4225 89.9349 35.6256 89.9349 36.978C89.9349 38.6817 90.6638 40.1395 92.1304 41.3426C93.5882 42.5457 95.3533 43.1516 97.4083 43.1516C99.4632 43.1516 101.22 42.5457 102.669 41.3426C104.118 40.1395 104.846 38.6817 104.846 36.978C104.846 35.6256 104.363 34.4225 103.406 33.3687C102.449 32.3148 101.246 31.5947 99.7969 31.1908V28.9777H110.985V26.3871H83.8491H83.8315ZM97.3995 33.4389C98.1459 33.4389 98.787 33.8078 99.3315 34.5454C99.8672 35.2831 100.139 36.091 100.139 36.978C100.139 37.865 99.8672 38.708 99.3315 39.4281C98.7958 40.157 98.1547 40.5171 97.3995 40.5171C96.6442 40.5171 95.9768 40.157 95.4499 39.4281C94.923 38.6992 94.6595 37.8825 94.6595 36.978C94.6595 36.0735 94.923 35.2743 95.4499 34.5454C95.9768 33.8078 96.6267 33.4389 97.3995 33.4389Z" fill="#005CA9"/>
<path d="M134.055 12.9283V20.709H128.689V23.405H134.055V30.1056H138.788V12.9283H134.055ZM114.735 18.575H120.1C119.863 20.911 119.047 22.8342 117.624 24.3447C116.21 25.8552 114.612 26.7685 112.838 27.0934L115.156 29.0957C116.632 28.9552 118.133 28.3492 119.679 27.269C121.225 26.1977 122.182 25.0385 122.551 23.8002C122.946 25.0385 123.912 26.1977 125.44 27.2866C126.968 28.3756 128.47 28.9727 129.945 29.0957L132.263 27.0934C130.489 26.7685 128.9 25.8464 127.495 24.3447C126.09 22.8342 125.264 20.911 125.01 18.575H130.445V15.9141H124.939V12.4453H120.206V15.9141H114.735V18.575V18.575ZM130.059 29.7982C127.934 29.7982 126.116 30.4481 124.606 31.7478C123.095 33.0475 122.349 34.6019 122.349 36.4285C122.349 38.2551 123.104 39.8446 124.606 41.1268C126.116 42.4089 127.934 43.0588 130.059 43.0588C132.184 43.0588 134.037 42.4177 135.548 41.1268C137.058 39.8446 137.813 38.2727 137.813 36.4285C137.813 34.5843 137.058 33.0475 135.548 31.7478C134.037 30.4481 132.211 29.7982 130.059 29.7982ZM130.059 32.4942C130.876 32.4942 131.596 32.8982 132.219 33.7061C132.843 34.5141 133.15 35.4186 133.15 36.4197C133.15 37.4209 132.843 38.3254 132.219 39.1157C131.596 39.9149 130.885 40.3101 130.059 40.3101C129.234 40.3101 128.522 39.9149 127.899 39.1157C127.275 38.3254 126.968 37.4209 126.968 36.4197C126.968 35.4186 127.275 34.5053 127.899 33.7061C128.522 32.8982 129.234 32.4942 130.059 32.4942V32.4942Z" fill="#005CA9"/>
<path d="M154.165 13V16.6093C154.165 19.4634 153.006 21.8257 150.696 23.7051C148.387 25.5844 146.095 26.5767 143.82 26.6645L145.928 28.7019C147.939 28.7019 150.073 28.1311 152.33 26.9807C154.587 25.839 155.992 24.4691 156.554 22.8796C157.142 24.4427 158.556 25.8039 160.813 26.9631C163.07 28.1223 165.186 28.7019 167.18 28.7019L169.287 26.6645C167.022 26.5679 164.73 25.5844 162.411 23.7051C160.093 21.8257 158.942 19.4546 158.942 16.6093V13H154.174H154.165ZM154.2 29.0971V34.9195L143.469 34.9546V37.6155H169.665V34.9546L158.934 34.9195V29.0971H154.2Z" fill="#005CA9"/>
<path d="M196.388 12.9609H191.655V29.3742H196.388V21.1017H201.122V18.4057H196.388V12.9697V12.9609ZM187.87 29.5762C185.692 29.5762 183.848 30.2348 182.329 31.5609C180.809 32.8781 180.045 34.4764 180.045 36.347C180.045 38.2175 180.801 39.807 182.329 41.1155C183.848 42.424 185.692 43.0826 187.87 43.0826C190.048 43.0826 191.857 42.424 193.376 41.1155C194.895 39.807 195.659 38.2175 195.659 36.347C195.659 34.4764 194.895 32.8781 193.376 31.5609C191.857 30.2436 190.021 29.5762 187.87 29.5762ZM187.87 32.2722C188.687 32.2722 189.416 32.6849 190.048 33.5192C190.68 34.3535 190.996 35.2931 190.996 36.3382C190.996 37.3832 190.68 38.2877 190.048 39.1045C189.416 39.9212 188.695 40.3339 187.87 40.3339C187.044 40.3339 186.289 39.9212 185.657 39.1045C185.025 38.2877 184.708 37.3657 184.708 36.3382C184.708 35.3107 185.025 34.3447 185.657 33.5192C186.289 32.6937 187.027 32.2722 187.87 32.2722ZM173.389 13.7601V24.8428C173.389 25.7736 173.687 26.5289 174.284 27.1085C174.882 27.6793 175.681 27.9691 176.682 27.9691H188.186V13.7689H183.453V18.0105H178.122V13.7689H173.389V13.7601ZM178.122 25.2994V20.6714H183.453V25.2994H178.122Z" fill="#005CA9"/>
<path d="M221.302 41.8869H226.035V31.6472H205.205V34.3081H221.302V41.8781V41.8869ZM226.035 12.8541H221.302V29.7152H226.035V21.513H230.769V18.817H226.035V12.8541V12.8541ZM218.817 18.4657V15.8751H212.819V12.4062H208.085V15.8751H202.087V18.4657H205.556C204.827 19.0541 204.257 19.7479 203.835 20.5734C203.413 21.3901 203.203 22.2682 203.203 23.2079C203.203 24.9818 203.914 26.5187 205.345 27.8008C206.768 29.0829 208.481 29.7328 210.465 29.7328C212.45 29.7328 214.189 29.0917 215.603 27.8008C217.017 26.5187 217.728 24.9818 217.728 23.2079C217.728 22.277 217.517 21.3988 217.096 20.5734C216.674 19.7566 216.094 19.0541 215.339 18.4657H218.808H218.817ZM210.474 19.2034C211.221 19.2034 211.87 19.5986 212.424 20.3802C212.977 21.1617 213.249 22.1014 213.249 23.1991C213.249 24.2969 212.977 25.2453 212.424 26.0357C211.879 26.826 211.229 27.23 210.474 27.23C209.719 27.23 209.104 26.8348 208.542 26.0357C207.98 25.2365 207.699 24.2969 207.699 23.1991C207.699 22.1014 207.98 21.1617 208.542 20.3802C209.104 19.5986 209.745 19.2034 210.474 19.2034Z" fill="#005CA9"/>
<path d="M236.951 23.2711V34.9509H232.323V37.6118H258.203V34.9509H248.42V23.2711H243.863V34.9509H241.518V23.2711H236.96H236.951ZM234.466 16.0173H250.739V23.9034C250.739 26.0813 250.677 27.864 250.546 29.2691C250.414 30.6742 250.045 31.8773 249.439 32.8784H253.61C254.172 31.9651 254.612 30.7884 254.928 29.3393C255.244 27.8903 255.402 26.1955 255.402 24.2547V13.3125H234.466V16.0085V16.0173Z" fill="#005CA9"/>
<path fill-rule="evenodd" clip-rule="evenodd" d="M69.2274 35.0041C69.2274 16.1055 53.9031 0.78125 35.0046 0.78125C16.106 0.78125 0.781738 16.1055 0.781738 35.0041C0.781738 53.9026 16.106 69.2269 35.0046 69.2269C53.9031 69.2269 69.2274 53.9026 69.2274 35.0041Z" fill="white" stroke="#EF7D00" stroke-width="1.78"/>
<path fill-rule="evenodd" clip-rule="evenodd" d="M67.3481 35.0037C67.3481 17.1414 52.8669 2.66016 35.0046 2.66016C17.1424 2.66016 2.66113 17.1414 2.66113 35.0037C2.66113 52.8659 17.1424 67.3472 35.0046 67.3472C52.8669 67.3472 67.3481 52.8659 67.3481 35.0037Z" fill="#005CA9"/>
<path fill-rule="evenodd" clip-rule="evenodd" d="M15.0081 45.8078C14.49 44.754 14.9642 43.9899 15.4911 43.4542C15.6667 44.0075 16.1937 44.3676 17.2563 44.7803C17.2563 44.0426 16.8347 43.2347 15.8775 42.7166C14.8852 42.1721 14.3495 41.7154 14.1914 41.25C13.8928 41.5574 13.6733 42.0404 13.6733 42.5234C13.6733 42.9185 13.6996 43.4015 14.0333 43.7001C13.6645 43.5421 13.0937 43.3401 12.6897 42.8571C12.1716 43.9636 12.9971 45.114 13.9543 45.6673C13.9719 45.6146 13.9719 45.5531 13.9982 45.5092L14.1299 44.9735C14.2353 45.2545 14.6129 45.5882 15.0081 45.8078V45.8078Z" fill="#FCBF00"/>
<path fill-rule="evenodd" clip-rule="evenodd" d="M22.095 53.2729C21.5066 52.8426 21.0412 52.1137 21.331 51.0423C21.9633 51.5955 23.0698 51.6921 24.2202 51.78C23.8074 51.0423 23.3596 50.4627 21.9808 50.0851C20.6021 49.7074 20.0137 49.4089 19.68 49.0312C19.2672 49.8831 19.961 51.1125 20.5406 51.3672C20.0839 51.2882 19.3463 51.1652 18.8808 50.8579V50.8842C18.8194 52.2366 20.242 53.1148 21.3661 53.3958C21.3661 53.387 21.208 52.8689 21.208 52.8689C21.5329 53.0972 21.8842 53.2026 22.1038 53.2641L22.095 53.2729Z" fill="#FCBF00"/>
<path fill-rule="evenodd" clip-rule="evenodd" d="M13.3921 43.0777C13.3219 42.8933 13.2692 42.6913 13.2692 42.4893C13.2692 41.8044 13.6995 41.093 14.3581 40.7066C14.4635 41.2599 14.7709 41.6638 15.491 42.1205C15.7544 41.418 15.6315 40.6978 14.8411 39.8987C13.8576 38.8888 13.84 38.2389 14.0332 37.8438C12.9794 38.3004 12.1188 39.5035 12.8213 40.4959C12.4086 40.2148 12.0134 39.5738 11.9695 39.0469C11.2406 39.8811 10.7664 41.4882 12.2944 42.7528C12.3383 42.6738 12.6281 42.059 12.6281 42.059C12.6808 42.3576 12.9882 42.8055 13.3921 43.0865V43.0777Z" fill="#FCBF00"/>
<path fill-rule="evenodd" clip-rule="evenodd" d="M17.0457 48.2016C16.4749 47.2708 16.8788 46.375 17.4936 45.8218C17.678 46.3838 18.24 46.7351 19.2236 47.0864C19.1006 46.3575 18.5122 45.5847 17.3794 45.1719C16.2992 44.7767 15.6933 44.4079 15.4298 44.0391C15.2893 44.2937 15.1839 44.566 15.1839 44.8997C15.1839 45.4266 15.3508 46.1116 15.8513 46.4277C15.421 46.296 14.7273 46.094 14.3409 45.7515C13.9984 46.7351 14.9205 47.8679 15.9304 48.2807C15.9392 48.149 16.0533 47.3235 16.0533 47.3235C16.1587 47.5869 16.5978 47.9821 17.0457 48.2104V48.2016Z" fill="#FCBF00"/>
<path fill-rule="evenodd" clip-rule="evenodd" d="M30.7715 55.7474C30.7715 55.5278 30.6046 54.8868 29.7176 54.4389C29.4103 54.2984 29.0327 54.1754 28.5672 54.0964C28.3828 54.0613 28.1808 54.0349 27.9613 54.0261L26.8109 53.9735C25.9502 53.9559 25.274 53.9295 24.8174 53.7539C24.914 54.5267 25.678 55.5542 27.0655 55.7825C26.6089 55.844 26.0117 55.8967 25.4497 55.7562C25.9502 56.3885 27.0304 57.1876 28.7429 57.214C29.2961 57.214 30.0426 57.0822 30.7715 56.687V55.7386V55.7474Z" fill="#FCBF00"/>
<path fill-rule="evenodd" clip-rule="evenodd" d="M24.3961 53.2437C25.1602 53.718 25.7134 53.6301 26.7497 53.6653L27.3117 53.6916C26.9165 53.0154 26.0471 52.2426 24.3786 52.0758C23.0701 51.944 22.3148 51.9616 21.5947 51.5664V51.5928C21.5947 52.3216 22.0689 53.4106 23.3247 53.6477C22.8769 53.6653 22.3148 53.6653 21.8143 53.4808C22.0514 54.7542 23.5092 55.3865 24.8177 55.606L24.6245 55.167C24.6245 55.167 25.1075 55.448 25.7485 55.5534C24.8528 55.0704 24.2732 54.2449 24.4049 53.2437H24.3961Z" fill="#FCBF00"/>
<path fill-rule="evenodd" clip-rule="evenodd" d="M17.8797 48.7724C17.4581 48.6583 16.7644 48.4651 16.3604 48.1401C16.1584 49.4135 17.2649 50.2917 18.468 50.7132C18.468 50.5112 18.5119 50.0985 18.5119 50.0985C18.7139 50.3883 19.0213 50.6166 19.6536 50.8976C18.6876 49.8614 19.3726 48.7637 19.636 48.4475C19.8468 48.9393 20.4088 49.2554 21.3485 49.5452C21.2519 48.6319 20.5142 47.8679 19.4604 47.4815C18.3451 47.0951 17.8182 46.8668 17.4581 46.375C17.1595 46.8317 16.9224 47.6835 17.8797 48.7549V48.7724Z" fill="#FCBF00"/>
<path fill-rule="evenodd" clip-rule="evenodd" d="M41.7049 23.2559L42.4864 23.4755L35.4171 12.6562L28.3828 23.4403L29.1468 23.2559L35.4171 13.6398L41.7049 23.2559Z" fill="#FCBF00"/>
<path fill-rule="evenodd" clip-rule="evenodd" d="M46.8948 30.2332L46.0869 29.9609L54.4823 43.3884C54.456 43.1513 54.8512 43.3357 55.1059 43.3357L46.8861 30.2332H46.8948Z" fill="#FCBF00"/>
<path fill-rule="evenodd" clip-rule="evenodd" d="M23.9482 30.2332L24.7561 29.9609L16.0094 43.1688C16.0358 42.9317 15.6581 43.3971 15.5791 43.0547L23.9482 30.242V30.2332Z" fill="#FCBF00"/>
<path fill-rule="evenodd" clip-rule="evenodd" d="M20.3389 48.4941L20.4969 48.8542L51.0577 48.9069L51.0665 48.4766L20.3389 48.4941Z" fill="#FCBF00"/>
<path fill-rule="evenodd" clip-rule="evenodd" d="M41.5029 23.1515L39.5357 24.3546V22.1504L35.5049 19.7969V21.8343C36.629 21.9748 37.0417 22.9232 37.3227 23.9331C37.6213 24.9782 38.078 26.8311 38.2448 27.5776C39.6938 26.392 40.4403 24.6796 40.8091 24.1C41.1692 23.5379 41.6434 23.3096 42.4074 23.5555L41.5117 23.1515H41.5029Z" fill="white"/>
<path fill-rule="evenodd" clip-rule="evenodd" d="M31.2017 22.1475V24.3517L29.1907 23.1574L28.3125 23.5174C29.0502 23.2715 29.5595 23.535 29.9196 24.097C30.2884 24.6679 31.0788 26.4242 32.5278 27.5922C33.0108 26.2661 33.4587 24.6679 33.3884 24.4307C33.3357 24.299 33.1952 24.2375 32.8966 24.2375C32.7298 24.2375 32.3961 24.2727 32.1063 24.4044L31.8252 24.5273L31.9131 24.2288C32.2292 23.1574 33.0898 23.0081 33.5289 22.9378C33.7221 22.4724 34.2402 21.8138 35.2501 21.8138V19.7852L31.2193 22.1387L31.2017 22.1475Z" fill="white"/>
<path fill-rule="evenodd" clip-rule="evenodd" d="M29.1643 35.5234C29.1643 35.5234 29.5507 35.8923 29.5594 35.8923C29.5507 35.8923 29.4365 36.4192 29.4365 36.4192C29.0237 37.1305 28.8745 37.473 28.7339 37.8243C28.4968 38.4214 28.3739 38.8957 28.3739 39.2557C28.3739 39.3874 28.3915 39.4928 28.4266 39.5982C28.3739 39.5719 25.3002 37.8682 25.2476 37.8418C25.3002 37.8155 29.1643 35.5234 29.1643 35.5234V35.5234Z" fill="white"/>
<path fill-rule="evenodd" clip-rule="evenodd" d="M28.2952 31.5791L28.2513 31.6933C28.1284 32.0797 28.0581 32.4836 28.0581 32.8788C28.0581 33.757 28.3743 34.6 28.9451 35.285C28.9099 35.3026 25.1425 37.5244 25.0986 37.5595V32.9139L27.2414 31.6493C27.6278 31.7196 27.9703 31.702 28.2952 31.5703V31.5791Z" fill="white"/>
<path fill-rule="evenodd" clip-rule="evenodd" d="M42.4516 31.6045C42.4516 31.6045 42.4516 31.6045 42.4516 31.5781C42.8556 31.7274 43.2595 31.7099 43.5054 31.6572L45.6482 32.9393V37.5586C45.6043 37.5322 41.8369 35.3104 41.793 35.2841C42.3638 34.5991 42.6712 33.7472 42.6712 32.8778C42.6712 32.4739 42.6097 32.0787 42.4867 31.6923L42.4516 31.6045Z" fill="white"/>
<path fill-rule="evenodd" clip-rule="evenodd" d="M41.591 35.5234C41.591 35.5234 45.2091 37.675 45.4813 37.8418C45.4374 37.8682 42.3726 39.5631 42.3111 39.5894C42.3374 39.4928 42.3638 39.3874 42.3638 39.2557C42.3638 38.9044 42.2496 38.4478 42.0125 37.8682C41.8632 37.4818 41.7227 37.1393 41.31 36.428C41.31 36.428 41.1958 35.9274 41.1958 35.9011C41.2134 35.8835 41.591 35.5322 41.591 35.5322V35.5234Z" fill="white"/>
<path fill-rule="evenodd" clip-rule="evenodd" d="M35.215 40.2197V43.5129C35.1623 43.4778 31.8867 41.5809 31.8164 41.5282C32.0535 41.4755 32.4048 41.2999 32.7561 40.7466C33.6079 40.8608 34.4773 40.6588 35.215 40.2109V40.2197Z" fill="white"/>
<path fill-rule="evenodd" clip-rule="evenodd" d="M35.5312 40.2227C36.2689 40.6617 37.1383 40.8637 37.9814 40.7583C38.2536 41.1711 38.561 41.4345 38.8683 41.5224C38.8157 41.5575 35.5839 43.4807 35.5312 43.5158V40.2314V40.2227Z" fill="white"/>
<path fill-rule="evenodd" clip-rule="evenodd" d="M38.2188 44.0412L38.851 45.3146L40.9587 44.252C40.6601 43.9183 40.3 43.4353 40.0893 43.1016L38.2188 44.0412V44.0412Z" fill="white"/>
<path fill-rule="evenodd" clip-rule="evenodd" d="M31.9219 45.4464L32.4928 44.3574L30.5608 43.207C30.3061 43.6022 29.8933 44.1116 29.6299 44.4014L31.9307 45.4464H31.9219Z" fill="white"/>
<path fill-rule="evenodd" clip-rule="evenodd" d="M25.2392 40.1159C24.7386 40.4233 24.2907 40.3442 23.3511 39.8963C23.272 39.6944 23.0876 39.6241 22.9471 39.6856C22.8329 39.7207 22.7803 39.8173 22.7715 39.9051L24.3873 40.7218C24.5015 40.6077 24.6859 40.5638 24.844 40.6428C25.0284 40.7394 25.0987 40.9765 25.0021 41.1697C24.9055 41.3453 24.6683 41.4332 24.4839 41.3366C24.3259 41.2487 24.2644 41.0819 24.2819 40.915L22.6485 40.0808C22.6046 40.1422 22.5783 40.2301 22.5958 40.3354C22.6397 40.4935 22.789 40.5901 23.0086 40.5462C23.9043 41.0555 24.2293 41.3805 24.2732 41.9689L25.8715 42.4343L26.5301 41.1609L25.2304 40.1335L25.2392 40.1159Z" fill="white"/>
<path fill-rule="evenodd" clip-rule="evenodd" d="M27.3028 40.9317L27.1711 40.8702C27.0657 40.8175 26.934 40.8614 26.8725 40.958L26.7145 41.2829C26.53 41.6254 26.2578 42.1436 26.0822 42.4861L25.9153 42.811C25.8538 42.9251 25.8977 43.0569 26.0031 43.1008L26.1349 43.171C26.249 43.2325 26.3807 43.171 26.4334 43.0832L26.4686 42.9954L27.3907 41.239C27.4433 41.1337 27.4082 41.0019 27.3028 40.9405V40.9317Z" fill="white"/>
<path fill-rule="evenodd" clip-rule="evenodd" d="M27.5222 41.4336C27.3466 41.7673 26.8285 42.7684 26.6616 43.0846L27.2588 43.3568C27.329 42.9002 27.5486 41.9781 27.7242 41.539L27.5222 41.4336V41.4336Z" fill="white"/>
<path fill-rule="evenodd" clip-rule="evenodd" d="M24.8264 41.0554C24.8791 40.9676 24.844 40.871 24.7561 40.8183C24.6771 40.7832 24.5629 40.8183 24.5102 40.8973C24.5015 40.9149 24.4927 40.95 24.4927 40.9764C24.4927 41.0379 24.5278 41.0993 24.5981 41.1432C24.6771 41.1871 24.7825 41.1432 24.8264 41.0554V41.0554Z" fill="white"/>
<path fill-rule="evenodd" clip-rule="evenodd" d="M47.1496 40.319C46.9125 39.8623 46.5349 39.5725 46.1836 39.6779L47.0969 41.4782C47.3955 41.2498 47.3867 40.7844 47.1496 40.319Z" fill="white"/>
<path fill-rule="evenodd" clip-rule="evenodd" d="M44.9102 40.5648L45.1121 40.9512L45.7708 40.5736L45.8762 40.7492L45.2 41.1268L45.3405 41.4078L46.043 41.0917L46.1308 41.2849L45.4371 41.601L45.6303 41.9874L46.9124 41.5659L45.9991 39.7656L44.9102 40.5648Z" fill="white"/>
<path fill-rule="evenodd" clip-rule="evenodd" d="M45.2352 41.6965L45.1913 41.5823L44.9542 41.1432L44.9103 41.0467L44.7259 40.6866C44.6469 40.5461 44.4976 40.5373 44.3571 40.5988L43.8126 40.8798C43.6721 40.95 43.6106 41.1345 43.6896 41.2838L44.3307 42.5571C44.401 42.6889 44.5854 42.7503 44.7259 42.6713L45.2616 42.4078C45.4109 42.3376 45.4899 42.2059 45.4109 42.0653L45.2352 41.7053V41.6965Z" fill="white"/>
<path fill-rule="evenodd" clip-rule="evenodd" d="M43.0395 41.6083C43.1713 41.9684 43.3293 42.5568 43.4172 43.0134L44.1548 42.6358L43.505 41.3712L43.0308 41.6171L43.0395 41.6083Z" fill="white"/>
<path fill-rule="evenodd" clip-rule="evenodd" d="M37.9114 27.5232C37.7796 26.8733 37.5162 25.7668 37.2703 24.8008C37.1474 25.2487 36.9629 25.6087 36.84 25.7843L36.6644 26.039L36.5941 25.7404C36.5326 25.5121 36.3833 25.2047 36.2253 24.9325C36.0145 25.4682 35.6632 25.9161 35.3559 26.1268L35.1275 26.2761V26.0039C35.1275 26.0039 35.1363 25.9336 35.1363 25.8985C35.1363 25.7317 35.1188 25.5472 35.1012 25.3892C34.8729 25.7931 34.5304 26.1268 34.2406 26.3025L33.9947 26.4518L34.0298 26.1707C34.0474 26.0127 34.0474 25.8195 34.0474 25.6526C33.7927 26.0302 33.5205 26.3464 33.1868 26.5484C33.055 26.9699 32.9409 27.286 32.8706 27.488C33.5468 26.8996 34.4162 26.5484 35.3646 26.5484C36.3131 26.5484 37.244 26.9172 37.9114 27.5319V27.5232Z" fill="#FCBF00"/>
<path fill-rule="evenodd" clip-rule="evenodd" d="M28.146 43.8489C28.146 43.8489 28.1284 43.9367 28.1284 43.9894C28.1284 44.0948 28.1548 44.1914 28.2601 44.2528C28.4358 44.3319 28.5939 44.1738 28.6465 44.086C28.7958 43.884 29.595 42.6897 29.7706 42.1452C29.8497 41.8817 29.7706 41.671 29.5599 41.5656C29.3491 41.469 29.1208 41.5393 28.9803 41.7676C28.6641 42.233 28.225 43.5942 28.146 43.8489V43.8489Z" fill="#FCBF00"/>
<path fill-rule="evenodd" clip-rule="evenodd" d="M28.7344 41.6088C28.7344 41.6088 28.7607 41.5649 28.7783 41.5385C28.7519 41.4332 28.6729 41.319 28.5236 41.2751C28.3304 41.2136 28.146 41.319 28.0318 41.5473C27.8474 41.9162 27.5488 43.172 27.5312 43.5232C27.5312 43.7603 27.6103 43.813 27.6893 43.8482C27.7596 43.8745 27.8035 43.8569 27.865 43.8482C27.865 43.813 27.865 43.7867 27.8737 43.7603C27.9177 43.5759 28.3831 42.1269 28.7344 41.6V41.6088Z" fill="#FCBF00"/>
<path fill-rule="evenodd" clip-rule="evenodd" d="M28.8745 44.2508C28.8745 44.2508 28.8393 44.3035 28.813 44.3299C28.8306 44.365 28.8569 44.4177 28.9096 44.4528C28.9798 44.4879 29.0852 44.5143 29.2696 44.365C29.5331 44.1367 30.3322 43.1268 30.5167 42.7491C30.622 42.5296 30.5869 42.3188 30.4113 42.2047C30.2971 42.1081 30.1566 42.1256 30.06 42.1608C30.0512 42.1871 30.0424 42.2135 30.0424 42.231C29.8492 42.8106 29.0325 44.0401 28.8745 44.2508Z" fill="#FCBF00"/>
<path fill-rule="evenodd" clip-rule="evenodd" d="M29.9198 39.4307C29.6212 39.8171 29.1031 39.861 28.8835 39.7468C28.5762 39.5712 28.6113 38.9477 29.0065 37.9817C29.1119 37.7094 29.2173 37.4636 29.4192 37.0859C29.4631 38.2276 30.0164 39.3253 30.9912 40.0366C31.2985 40.2737 31.7991 40.5548 32.4402 40.6953C32.045 41.2485 31.6586 41.3276 31.4215 41.2134C31.1668 41.0729 31.079 40.7392 31.0878 40.344C30.8946 40.5987 30.4116 40.8533 30.0954 40.6514C29.7266 40.423 29.8056 39.9313 29.9286 39.4307H29.9198Z" fill="#FCBF00"/>
<path fill-rule="evenodd" clip-rule="evenodd" d="M40.809 39.4307C41.1163 39.8171 41.6345 39.861 41.8452 39.7468C42.1614 39.5712 42.1262 38.9477 41.7398 37.9817C41.6345 37.7094 41.5291 37.4636 41.3359 37.0859C41.3007 38.2276 40.7387 39.3253 39.7639 40.0366C39.4478 40.2737 38.9472 40.5548 38.2974 40.6953C38.6925 41.2485 39.0789 41.3276 39.3161 41.2134C39.5795 41.0729 39.6673 40.7392 39.6498 40.344C39.8517 40.5987 40.326 40.8533 40.6421 40.6514C41.0109 40.423 40.9319 39.9313 40.809 39.4307Z" fill="#FCBF00"/>
<path fill-rule="evenodd" clip-rule="evenodd" d="M40.9671 42.1436C41.134 42.6618 41.9068 43.8473 42.0912 44.0844C42.1527 44.1723 42.2932 44.3391 42.4776 44.2513C42.583 44.1898 42.6093 44.0932 42.6093 43.9966C42.6093 43.9351 42.6005 43.8825 42.583 43.8473C42.5127 43.5926 42.0648 42.2227 41.7575 41.766C41.617 41.5465 41.3886 41.4674 41.1779 41.564C40.9583 41.6694 40.8881 41.8802 40.9583 42.1436H40.9671Z" fill="#FCBF00"/>
<path fill-rule="evenodd" clip-rule="evenodd" d="M42.864 43.7687C42.864 43.7687 42.8728 43.8213 42.8728 43.8565C42.9167 43.8653 42.9782 43.8828 43.0396 43.8565C43.1187 43.8213 43.1977 43.7687 43.1889 43.5315C43.1889 43.1803 42.8816 41.9333 42.6971 41.5556C42.583 41.3273 42.3986 41.2307 42.1966 41.2834C42.0473 41.3273 41.9682 41.4415 41.9419 41.5469C41.9507 41.5732 41.9682 41.582 41.9858 41.6171C42.3459 42.144 42.8025 43.6018 42.8464 43.7774L42.864 43.7687Z" fill="#FCBF00"/>
<path fill-rule="evenodd" clip-rule="evenodd" d="M40.7038 42.2346C40.7038 42.2346 40.6863 42.1907 40.6863 42.1644C40.5809 42.1205 40.4492 42.1117 40.3262 42.2083C40.1506 42.3312 40.1242 42.5332 40.2296 42.7528C40.4053 43.1304 41.2044 44.1491 41.4679 44.3686C41.6523 44.5179 41.7577 44.4916 41.8279 44.4564C41.8806 44.4125 41.9157 44.3686 41.9245 44.3335C41.907 44.3072 41.8894 44.2896 41.863 44.2545C41.705 44.0437 40.897 42.823 40.7038 42.2346V42.2346Z" fill="#FCBF00"/>
<path fill-rule="evenodd" clip-rule="evenodd" d="M40.1595 41.9769C40.3 41.8715 40.4932 41.8363 40.6601 41.8715C40.6864 41.6344 40.8357 41.4324 41.0553 41.3182C41.2836 41.2216 41.5295 41.2304 41.7315 41.3533C41.8105 41.2041 41.951 41.0723 42.1354 41.0284C42.1969 41.0021 42.2672 40.9933 42.355 41.0021L42.0388 39.957C42.0388 39.957 42.0037 39.9746 41.9861 40.0009C41.7578 40.1239 41.4505 40.1414 41.2133 40.0624V40.0975C41.2133 40.3786 41.1167 40.7035 40.7918 40.8967C40.4581 41.0987 40.1244 41.0372 39.8697 40.8616C39.817 41.1162 39.6941 41.3446 39.457 41.4587C39.4394 41.4675 39.4043 41.4763 39.3867 41.4939L39.9488 42.2052C40.0015 42.1261 40.0541 42.0471 40.1595 41.9769V41.9769Z" fill="#FCBF00"/>
<path fill-rule="evenodd" clip-rule="evenodd" d="M30.8593 40.8537C30.6134 41.0294 30.2709 41.0909 29.9372 40.8889C29.621 40.6957 29.5157 40.3707 29.5157 40.0985C29.5157 40.0809 29.5157 40.0634 29.5157 40.0546C29.2698 40.1336 28.9624 40.1161 28.7341 39.9931C28.7165 39.9668 28.6989 39.958 28.6814 39.9492L28.374 40.9943C28.4443 40.9943 28.5145 40.9943 28.5936 41.0206C28.7692 41.0645 28.9097 41.205 28.9887 41.3455C29.1995 41.2226 29.4366 41.2138 29.6562 41.3104C29.8845 41.4333 30.025 41.6265 30.0601 41.8637C30.2358 41.8285 30.4202 41.8637 30.5695 41.969C30.6573 42.0393 30.7276 42.1008 30.7715 42.1974L31.3335 41.486C31.3335 41.486 31.2896 41.4685 31.272 41.4509C31.0349 41.3367 30.9032 41.1084 30.8505 40.8537H30.8593Z" fill="#FCBF00"/>
<path fill-rule="evenodd" clip-rule="evenodd" d="M49.1078 23.7576C49.2571 23.7137 49.4327 23.6698 49.4766 23.74C49.5205 23.7752 49.5205 23.8366 49.4766 23.942C49.38 24.1791 48.7038 25.4261 47.5973 25.7686C46.5435 26.1023 43.7421 25.9443 41.8276 25.2768C41.9857 25.031 42.1262 24.9695 42.8112 25.1012C43.5577 25.2329 44.4095 25.3383 45.0067 24.8817C45.2526 24.6972 45.437 24.4514 45.5336 24.1879C46.5874 24.223 47.8608 24.0562 49.1166 23.7488L49.1078 23.7576Z" fill="#FCBF00"/>
<path fill-rule="evenodd" clip-rule="evenodd" d="M41.6698 25.5898C42.829 26.0465 45.8148 26.5998 47.7468 26.108C47.3868 26.7842 46.6667 27.5745 45.2177 27.6184C43.6896 27.6536 41.9684 27.1267 40.9409 26.5734C41.1078 26.4153 41.503 25.8533 41.6698 25.5898V25.5898Z" fill="#FCBF00"/>
<path fill-rule="evenodd" clip-rule="evenodd" d="M40.6864 26.8633C42.0564 27.5131 43.2507 27.8381 44.5943 27.9259C44.1113 28.3123 43.3561 28.7075 42.5921 28.6811C41.7666 28.6548 40.8093 28.2684 39.9399 27.6185C40.1244 27.4604 40.5283 27.0565 40.6864 26.8633V26.8633Z" fill="#FCBF00"/>
<path fill-rule="evenodd" clip-rule="evenodd" d="M49.8372 23.8764C52.6473 23.7885 55.5541 23.2529 58.4785 22.2956C58.54 22.2869 58.6278 22.2605 58.6629 22.3132C58.7244 22.3922 58.6805 22.5942 58.5224 22.884C57.9604 23.9203 57.3105 24.4208 56.0284 24.7897C54.4476 25.2639 51.5496 25.4571 48.9502 25.2727C49.3366 24.8775 49.6966 24.3242 49.8372 23.8676V23.8764Z" fill="#FCBF00"/>
<path fill-rule="evenodd" clip-rule="evenodd" d="M57.2665 24.6953C57.2665 24.6953 57.2929 24.6777 57.3016 24.6953C57.328 24.6953 57.3368 24.7743 57.3016 24.8885C57.0997 25.433 56.1863 26.7503 54.8427 27.0664C53.0864 27.4967 49.3541 27.2157 47.668 26.8205C47.8348 26.6361 48.0895 26.1619 48.1422 25.9775C48.3178 25.8896 48.4759 25.7755 48.6779 25.5823C49.3453 25.6789 54.7725 26.0477 57.2753 24.6953H57.2665Z" fill="#FCBF00"/>
<path fill-rule="evenodd" clip-rule="evenodd" d="M47.4219 27.1016C48.3967 27.3914 52.4802 27.9797 54.7284 27.4441C54.1312 28.612 52.9808 29.1741 51.2859 29.1038C48.9939 29.0336 47.097 28.4276 45.6831 27.8919C46.3417 27.8744 47.0706 27.4704 47.4307 27.1016H47.4219Z" fill="#FCBF00"/>
<path fill-rule="evenodd" clip-rule="evenodd" d="M45.086 28.0078L45.2177 28.0605C47.5976 29.0265 49.6613 29.4656 51.3299 29.4129C50.7854 30.1242 50.0214 30.4667 48.9851 30.4492C47.6239 30.4228 45.3055 29.5359 43.9531 28.7279C44.3922 28.5435 44.7698 28.3064 45.086 28.0078V28.0078Z" fill="#FCBF00"/>
<path fill-rule="evenodd" clip-rule="evenodd" d="M43.5756 28.875C44.2694 29.3141 45.0158 29.6829 45.7886 29.9727C45.6569 30.1923 45.2354 30.5787 44.6294 30.5435C43.9181 30.4996 42.9521 29.8937 42.3198 29.3843C42.4516 29.2877 42.6184 29.1121 42.6448 29.0331C43.0048 29.0331 43.321 28.9804 43.5756 28.875Z" fill="#FCBF00"/>
<path fill-rule="evenodd" clip-rule="evenodd" d="M42.03 29.543C42.6711 30.0611 43.5932 30.6846 44.2694 30.7812C44.0674 31.071 43.4263 31.475 42.715 31.273C42.5394 31.2291 42.3725 31.1325 42.1969 31.0183C41.9422 30.5353 41.5558 30.105 41.1167 29.7801C41.4504 29.7625 41.7578 29.6835 42.03 29.543V29.543Z" fill="#FCBF00"/>
<path fill-rule="evenodd" clip-rule="evenodd" d="M38.9564 29.041L38.7368 28.5317C38.8949 28.4351 39.4394 28.0399 39.6326 27.8555C40.1683 28.2858 41.064 28.8303 42.1793 28.9971C41.8719 29.2781 41.3275 29.4011 40.8796 29.4011H40.6513C40.6513 29.4011 40.4932 29.4011 40.4844 29.4011C40.0014 29.1727 39.4921 29.0498 38.9476 29.0322L38.9564 29.041Z" fill="#FCBF00"/>
<path fill-rule="evenodd" clip-rule="evenodd" d="M38.5696 28.2849L38.2974 27.8897C39.6761 26.8534 40.4753 25.4044 40.9056 24.6228L41.1251 24.2276C41.4764 23.692 42.0648 23.7798 42.1789 23.7973L42.2931 23.8149C43.022 23.9378 43.7684 24.0696 44.9189 24.0081H45.033C45.1296 23.9905 45.2087 23.9818 45.2262 24.0081C45.2262 24.0081 45.235 24.0344 45.2262 24.0608C45.1823 24.3682 44.7081 24.8599 44.1548 24.9038C43.7684 24.9214 43.1098 24.8336 42.7058 24.7897L42.4424 24.7458C42.1262 24.7282 41.8101 24.7282 41.4852 25.2727C40.9934 26.0894 40.0889 27.2749 38.6135 28.2849L38.5696 28.3024V28.2849Z" fill="#FCBF00"/>
<path fill-rule="evenodd" clip-rule="evenodd" d="M25.2125 24.1957C25.3003 24.4592 25.4935 24.7051 25.7394 24.8895C26.3278 25.3461 27.1796 25.232 27.9261 25.109C28.611 24.9773 28.7428 25.0388 28.9096 25.2847C26.9952 25.9521 24.1938 26.1102 23.14 25.7764C22.0334 25.4339 21.3572 24.1781 21.2694 23.9498C21.2343 23.8444 21.2255 23.783 21.2606 23.7478C21.3221 23.6776 21.489 23.7215 21.647 23.7654C22.8853 24.0728 24.1586 24.2396 25.2213 24.2045L25.2125 24.1957Z" fill="#FCBF00"/>
<path fill-rule="evenodd" clip-rule="evenodd" d="M29.8054 26.5734C28.7604 27.1267 27.0479 27.6536 25.5287 27.6184C24.0797 27.5745 23.3596 26.7754 22.9995 26.108C24.9403 26.6085 27.9173 26.0553 29.0678 25.5898C29.2346 25.8533 29.6298 26.4153 29.8054 26.5734V26.5734Z" fill="#FCBF00"/>
<path fill-rule="evenodd" clip-rule="evenodd" d="M30.8067 27.6302C29.9373 28.2801 28.9801 28.6665 28.1546 28.6928C27.3994 28.7192 26.6354 28.324 26.1611 27.9376C27.4872 27.8498 28.6991 27.5249 30.0603 26.875C30.2183 27.0682 30.6311 27.4809 30.8067 27.6302Z" fill="#FCBF00"/>
<path fill-rule="evenodd" clip-rule="evenodd" d="M21.7877 25.2837C19.197 25.4681 16.2815 25.2749 14.7095 24.8007C13.4274 24.4318 12.7775 23.9313 12.2155 22.895C12.0574 22.6052 12.0047 22.4032 12.075 22.3242C12.1101 22.2715 12.1891 22.2891 12.2506 22.3066C15.1837 23.2638 18.0993 23.7995 20.9095 23.8874C21.0412 24.344 21.4013 24.8973 21.7877 25.2924V25.2837Z" fill="#FCBF00"/>
<path fill-rule="evenodd" clip-rule="evenodd" d="M22.0686 25.5876C22.2706 25.7808 22.4374 25.895 22.6131 25.9828C22.6658 26.1672 22.9204 26.6415 23.0873 26.8259C21.3924 27.2211 17.6689 27.5021 15.9125 27.0718C14.5689 26.7468 13.6556 25.4296 13.4361 24.8939C13.4097 24.7797 13.4185 24.7095 13.4361 24.7007C13.4361 24.6831 13.4536 24.6831 13.4712 24.7007C15.9652 26.0531 21.3924 25.6842 22.0686 25.5876V25.5876Z" fill="#FCBF00"/>
<path fill-rule="evenodd" clip-rule="evenodd" d="M25.0721 27.8919C23.6583 28.4276 21.7526 29.0423 19.4605 29.1038C17.7657 29.1741 16.6152 28.612 16.0181 27.4441C18.2662 27.9797 22.3498 27.3914 23.3158 27.1016C23.6846 27.4704 24.3959 27.8656 25.0721 27.8919V27.8919Z" fill="#FCBF00"/>
<path fill-rule="evenodd" clip-rule="evenodd" d="M26.7845 28.7279C25.4321 29.5446 23.1049 30.4316 21.7525 30.4492C20.7162 30.4667 19.9434 30.1242 19.4077 29.4129C21.0763 29.4656 23.1312 29.0177 25.5111 28.0605C25.5111 28.0605 25.634 28.0166 25.6428 28.0078C25.959 28.3064 26.3366 28.5435 26.7757 28.7279H26.7845Z" fill="#FCBF00"/>
<path fill-rule="evenodd" clip-rule="evenodd" d="M28.0931 29.0331C28.1282 29.1121 28.2863 29.2877 28.4181 29.3843C27.7945 29.8849 26.8198 30.4909 26.1172 30.5435C25.5113 30.5787 25.081 30.1923 24.958 29.9727C25.7132 29.6829 26.4685 29.3141 27.171 28.875C27.4169 28.9804 27.7331 29.0331 28.0931 29.0331Z" fill="#FCBF00"/>
<path fill-rule="evenodd" clip-rule="evenodd" d="M29.6297 29.7801C29.1906 30.105 28.8042 30.5353 28.5408 31.0183C28.3651 31.1325 28.1983 31.2291 28.0314 31.273C27.3113 31.475 26.679 31.071 26.4771 30.7812C27.1357 30.6758 28.0578 30.0523 28.7076 29.543C28.9799 29.6835 29.296 29.7625 29.6209 29.7801H29.6297Z" fill="#FCBF00"/>
<path fill-rule="evenodd" clip-rule="evenodd" d="M31.7815 29.044C31.2546 29.0615 30.7365 29.1845 30.2535 29.4128H29.8583C29.4192 29.4128 28.8572 29.2811 28.5498 29.0088C29.6651 28.8508 30.5696 28.2975 31.1053 27.8672C31.3073 28.0428 31.8518 28.4468 32.0098 28.5434C32.0098 28.5434 31.7903 29.0264 31.7903 29.0527L31.7815 29.044Z" fill="#FCBF00"/>
<path fill-rule="evenodd" clip-rule="evenodd" d="M32.1591 28.2867L32.1239 28.2692C30.6398 27.2593 29.7441 26.0825 29.2347 25.257C28.9186 24.7125 28.6024 24.7125 28.2863 24.7301L28.0228 24.774C27.6189 24.8267 26.969 24.9057 26.5826 24.8882C26.0294 24.8443 25.5464 24.3613 25.5024 24.0451C25.5024 24.0188 25.5024 24.0012 25.5024 23.9924C25.52 23.9661 25.599 23.9749 25.6869 23.9836H25.801C26.9514 24.0627 27.7067 23.931 28.4268 23.7992L28.541 23.7817C28.6463 23.7553 29.2435 23.6763 29.5948 24.212L29.8231 24.6072C30.2622 25.3887 31.0701 26.8377 32.4313 27.874C32.4313 27.874 32.1503 28.2516 32.1503 28.278L32.1591 28.2867Z" fill="#FCBF00"/>
<path fill-rule="evenodd" clip-rule="evenodd" d="M34.4952 23.6583C34.346 23.6407 34.2055 23.3948 34.2055 23.1665H35.4788C35.4788 23.1665 34.7499 23.711 34.4952 23.6583V23.6583ZM37.0595 24.0008C36.8137 23.1314 36.4712 22.2005 35.4173 22.0951C34.3811 21.9985 33.8805 22.6923 33.74 23.1226L33.7049 23.2016H33.6258C33.2834 23.2455 32.6072 23.3421 32.2822 24.0534C32.5018 23.992 32.7301 23.9656 32.897 23.9656C33.0814 23.9656 33.4941 23.9656 33.6434 24.3169C33.7312 24.5277 33.5556 25.318 33.3185 26.0996C33.5995 25.8537 33.8542 25.5288 34.0649 25.1073L34.2845 24.6594L34.3284 25.16C34.3372 25.2478 34.346 25.3707 34.346 25.5024C34.346 25.6254 34.3284 25.7483 34.3196 25.8625C34.6006 25.6342 34.8904 25.2653 35.0134 24.8526L35.1802 24.352L35.3032 24.8702C35.3471 25.0809 35.3822 25.3795 35.4086 25.6956C35.672 25.4234 35.9443 25.0107 36.0496 24.554L36.1199 24.2466L36.2955 24.5101C36.4624 24.7296 36.6292 25.0634 36.7522 25.3795C36.919 25.0546 37.0771 24.5804 37.0771 24.0886C37.0683 24.0622 37.0595 24.0359 37.0595 24.0095V24.0008Z" fill="#FCBF00"/>
<path fill-rule="evenodd" clip-rule="evenodd" d="M34.2754 37.6121V37.1204C34.2754 37.0501 34.293 36.9886 34.3193 36.9184L33.2216 35.4782C33.125 35.3376 33.0372 35.2147 32.9932 35.0391L29.9986 36.0051C29.5947 37.3838 30.0865 38.8328 31.2544 39.6759C32.4224 40.5189 33.968 40.5365 35.1448 39.7198V38.06H34.7233C34.4774 38.06 34.2754 37.8668 34.2754 37.6121Z" fill="#FCBF00"/>
<path fill-rule="evenodd" clip-rule="evenodd" d="M37.797 34.5662L40.8531 35.5673C41.7225 34.9174 42.2055 33.9251 42.2055 32.88C42.2055 32.5288 42.1616 32.1687 42.0474 31.8262C41.5995 30.465 40.3525 29.5429 38.9298 29.5078L37.3403 31.7121C37.5774 31.9579 37.797 32.2829 37.797 32.6693V34.5749V34.5662Z" fill="#FCBF00"/>
<path fill-rule="evenodd" clip-rule="evenodd" d="M36.4183 36.9184C36.4446 36.9886 36.4622 37.0413 36.4622 37.1204V37.6121C36.4622 37.858 36.2602 38.06 36.0055 38.06H35.584V39.7198C36.7608 40.5365 38.3151 40.5277 39.4831 39.6759C40.3789 39.0348 40.8706 38.0161 40.8706 36.9711C40.8706 36.6461 40.8267 36.3212 40.7301 36.0051L37.7355 35.0391C37.6916 35.2147 37.6126 35.3464 37.5072 35.4782L36.4095 36.9184H36.4183Z" fill="#FCBF00"/>
<path fill-rule="evenodd" clip-rule="evenodd" d="M34.3634 29.2325C34.3371 29.0042 34.4249 28.9076 34.4952 28.8461C34.583 28.8022 34.7235 28.7583 34.9606 28.89C35.1099 28.9779 35.9003 29.5487 36.1022 30.1195C36.5326 30.4005 36.919 30.8659 37.0858 31.2875L38.5524 29.2589C38.0869 27.8977 36.8224 26.9844 35.3646 26.9844C33.9068 26.9844 32.651 27.8889 32.1855 29.2589L33.8629 31.5685C34.3283 30.9625 34.4864 30.1985 34.3634 29.2325V29.2325Z" fill="#FCBF00"/>
<path fill-rule="evenodd" clip-rule="evenodd" d="M33.3182 32.1064L33.3358 32.0888C33.4148 32.0274 33.4763 31.9747 33.5465 31.9044L31.8077 29.5157C30.3763 29.5421 29.138 30.4642 28.6989 31.8254C28.2511 33.2129 28.7253 34.697 29.8845 35.5664L32.9406 34.5653V32.765C32.9406 32.3874 33.0899 32.282 33.3182 32.0976V32.1064Z" fill="#FCBF00"/>
<path fill-rule="evenodd" clip-rule="evenodd" d="M37.4458 34.6537C37.4458 34.9698 37.358 35.1016 37.2438 35.286C37.2438 35.286 36.4359 36.3398 36.1549 36.6911C36.111 36.6911 36.0671 36.6735 36.0144 36.6735H34.7234C34.6795 36.6735 34.6268 36.6823 34.5829 36.6911L33.5115 35.286C33.371 35.1016 33.3008 34.9786 33.3008 34.6537V32.7744C33.3008 32.5724 33.3183 32.546 33.5379 32.3792H33.5555C34.3546 31.7381 34.7586 30.9038 34.7586 29.8325C34.7586 29.6217 34.741 29.4109 34.7147 29.1914V29.1562C34.7147 29.1562 34.7586 29.1738 34.7849 29.1914C34.9606 29.288 35.6719 29.8412 35.7948 30.2803C35.8124 30.3242 35.8212 30.4033 35.8212 30.4911C35.8212 30.8951 35.6016 31.6503 34.8025 32.4758L34.7234 32.546C34.6093 32.6602 34.4512 32.7919 34.4512 33.1256V35.1191H34.8025V33.1256C34.8025 32.95 34.8552 32.9061 34.9693 32.8095L35.0571 32.7305C35.8826 31.8874 36.1373 31.1146 36.1724 30.6053C36.5501 30.939 36.8399 31.3956 36.8486 31.6591C36.8662 31.9928 36.6554 32.4055 36.2251 32.8885C36.0407 33.1081 35.9617 33.2222 35.9617 33.5033V35.1191H36.313V33.5033C36.313 33.3452 36.313 33.3101 36.4974 33.1256C36.8486 32.7217 37.0682 32.3528 37.1648 32.0191C37.3668 32.2562 37.4722 32.467 37.4722 32.6778V34.6625L37.4458 34.6537ZM36.111 37.6132C36.111 37.6659 36.0671 37.7098 36.0144 37.7098H34.7234C34.6707 37.7098 34.6181 37.6659 34.6181 37.6132V37.1214C34.6181 37.0687 34.6707 37.0248 34.7234 37.0248H36.0144C36.0671 37.0248 36.111 37.0687 36.111 37.1214V37.6132Z" fill="#FCBF00"/>
<path d="M10.8805 18.3798L11.8465 17.1854C11.9607 17.484 11.9695 17.8265 11.8553 18.2305C11.7499 18.6345 11.5655 18.9857 11.3284 19.3019L11.9168 19.2053C12.1714 18.8979 12.3734 18.5203 12.5403 18.0724C12.6984 17.6245 12.7159 17.2645 12.5842 16.9835C12.8828 17.0537 13.234 16.9571 13.6468 16.7112C14.0508 16.4566 14.3757 16.1843 14.6216 15.877L14.5864 15.2798C14.3406 15.5784 14.0244 15.8243 13.6556 16.0175C13.2867 16.2107 12.9442 16.2809 12.6281 16.2282L13.5941 15.0339L13.1726 14.6914L12.1188 15.9911L11.6182 15.5872L11.0035 16.3424L11.504 16.7464L10.459 18.0373L10.8805 18.3798V18.3798ZM11.7499 19.8815L12.1627 20.2152L13.6029 18.4413L13.9542 18.7223C13.8224 19.0121 13.7785 19.2931 13.8312 19.5829C13.8751 19.8727 14.0068 20.101 14.2176 20.2767C14.4898 20.4962 14.8148 20.5665 15.1924 20.4874C15.57 20.4084 15.8862 20.2064 16.1496 19.8815C16.4131 19.5565 16.5448 19.2053 16.536 18.8189C16.536 18.4325 16.3955 18.1339 16.1233 17.9143C15.9125 17.7387 15.6578 17.6597 15.368 17.6772C15.0782 17.6948 14.806 17.7914 14.5601 17.967L14.2088 17.686L15.6403 15.9209L15.2275 15.5872L11.7499 19.8815V19.8815ZM14.604 18.6345C14.7006 18.5203 14.8411 18.4588 15.0255 18.4764C15.21 18.4764 15.3768 18.5466 15.5173 18.6608C15.6578 18.775 15.7544 18.9243 15.7983 19.0999C15.8422 19.2755 15.8159 19.4248 15.7193 19.5478C15.6227 19.6707 15.4822 19.7234 15.2978 19.7146C15.1134 19.7058 14.9553 19.6444 14.806 19.5214C14.6655 19.4073 14.5689 19.258 14.525 19.0823C14.4723 18.9067 14.4986 18.7574 14.604 18.6345V18.6345Z" fill="white"/>
<path d="M21.0677 8.15978L21.8317 9.54731L20.8745 10.0742L21.138 10.5572L22.0952 10.0303L22.7538 11.2246L23.5969 10.7592L21.902 7.70312L21.0589 8.16856L21.0677 8.15978ZM18.1873 11.0666L19.1445 10.5397C19.3377 10.9787 19.3728 11.4003 19.2762 11.813C19.1708 12.217 18.9776 12.5419 18.6966 12.779L19.3026 12.902C19.5485 12.7351 19.7592 12.4717 19.9261 12.1292C20.0929 11.7867 20.1544 11.4881 20.0929 11.2246C20.2861 11.4091 20.5759 11.5144 20.9536 11.5583C21.3312 11.6023 21.6561 11.5583 21.9371 11.4354L22.1479 10.8558C21.7966 10.97 21.4278 10.97 21.0238 10.8382C20.6286 10.7065 20.2861 10.4518 20.0139 10.0567L20.9799 9.52096L20.7164 9.04675L19.7329 9.59122L19.3904 8.97649L18.5473 9.44193L18.8898 10.0567L17.915 10.5923L18.1785 11.0666H18.1873ZM22.0162 11.5496C21.6385 11.7603 21.3751 12.0501 21.2346 12.4365C21.0941 12.8142 21.1116 13.1654 21.296 13.4904C21.4805 13.8153 21.7703 14.026 22.1654 14.1051C22.5606 14.1841 22.947 14.1226 23.3246 13.9119C23.7023 13.7011 23.9657 13.4025 24.115 13.0249C24.2555 12.6473 24.238 12.296 24.0535 11.9623C23.8691 11.6374 23.5881 11.4354 23.1929 11.3476C22.7977 11.2685 22.4026 11.33 22.0249 11.5408L22.0162 11.5496ZM22.2796 12.0326C22.4289 11.9535 22.5958 11.9535 22.7802 12.0326C22.9734 12.1116 23.1139 12.2433 23.2105 12.4278C23.3071 12.6034 23.3422 12.7966 23.3071 12.9986C23.272 13.2006 23.1841 13.3411 23.0436 13.4201C22.8943 13.4991 22.7275 13.4991 22.5431 13.4201C22.3586 13.3411 22.2094 13.2093 22.1128 13.0337C22.0162 12.8581 21.981 12.6649 22.0074 12.4541C22.0425 12.2521 22.1303 12.1028 22.2708 12.0238L22.2796 12.0326Z" fill="white"/>
<path d="M29.5685 5.1991L29.6826 5.928C29.7704 6.49881 29.6124 7.01694 29.2084 7.46482C28.8044 7.91269 28.3741 8.18493 27.9175 8.28153L28.4093 8.62402C28.8132 8.56254 29.226 8.37813 29.6387 8.07954C30.0602 7.78096 30.2974 7.45603 30.3588 7.12232C30.5257 7.42091 30.8506 7.64923 31.3424 7.80731C31.8342 7.96538 32.2733 8.01807 32.6772 7.9566L33.0373 7.48238C32.5806 7.53507 32.0888 7.41212 31.5619 7.10476C31.035 6.7974 30.7277 6.3583 30.6398 5.78749L30.5257 5.05859L29.5685 5.20788V5.1991ZM30.0866 8.43082L30.271 9.5988L28.1195 9.95007L28.2073 10.4858L33.4676 9.65149L33.3798 9.1158L31.2194 9.44951L31.035 8.28153L30.0866 8.43082V8.43082Z" fill="white"/>
<path d="M42.7764 5.47707L41.8279 5.32778L41.3098 8.62975L42.2583 8.77904L42.5217 7.11927L43.4701 7.26856L43.558 6.72409L42.6095 6.5748L42.7852 5.48585L42.7764 5.47707ZM40.537 8.54193C40.0979 8.47167 39.7115 8.54193 39.3603 8.76147C39.0178 8.98102 38.807 9.27082 38.7543 9.64844C38.6928 10.0261 38.7982 10.3686 39.0617 10.6759C39.3251 10.9833 39.6764 11.1765 40.1155 11.2467C40.5458 11.317 40.941 11.2467 41.2835 11.0272C41.626 10.8076 41.8367 10.5178 41.8894 10.1402C41.9509 9.7626 41.8455 9.42011 41.5821 9.10397C41.3186 8.78782 40.9761 8.6034 40.537 8.53315V8.54193ZM40.4492 9.0864C40.6161 9.11275 40.7478 9.21813 40.8444 9.40255C40.941 9.58697 40.9761 9.78895 40.941 9.99971C40.9059 10.2105 40.818 10.3773 40.66 10.5266C40.5107 10.6671 40.3526 10.7286 40.1857 10.7023C40.0189 10.6759 39.8784 10.5705 39.7818 10.3861C39.6764 10.2017 39.6501 10.0085 39.6764 9.79773C39.7115 9.58697 39.7993 9.41133 39.9574 9.26204C40.1155 9.11275 40.2736 9.06006 40.4404 9.0864H40.4492ZM38.1308 4.90625L37.7795 7.13684C37.7532 7.32125 37.7795 7.48811 37.8849 7.61984C37.9903 7.75156 38.1396 7.83938 38.3416 7.86573L40.6512 8.23457L41.0991 5.38047L40.1506 5.23118L40.0189 6.08302L38.9475 5.91616L39.0792 5.06432L38.1308 4.91503V4.90625ZM38.7192 7.37395L38.8685 6.44307L39.9399 6.60993L39.7906 7.5408L38.7192 7.37395Z" fill="white"/>
<path d="M49.0378 14.5425L49.8809 15.0079L50.8908 13.1901L47.1848 11.1351L46.9214 11.6093L49.7843 13.1988L49.0378 14.5425ZM52.7437 9.84419L51.9007 9.37875L50.2321 12.3821L51.0752 12.8476L51.8831 11.3898L52.7262 11.8552L52.9896 11.3722L52.1466 10.9068L52.735 9.84419H52.7437ZM50.9083 10.1252L51.163 9.66855L50.1004 9.08017L50.4429 8.46544L49.5998 8L49.2574 8.61473L48.1948 8.02635L47.9401 8.49178L48.5548 8.83427C48.3704 8.8694 48.1948 8.93966 48.0455 9.03626C47.8874 9.14164 47.7644 9.27337 47.6766 9.44022C47.501 9.75637 47.4746 10.0989 47.6064 10.4677C47.7381 10.8365 47.9752 11.1176 48.3265 11.3195C48.6865 11.5215 49.0554 11.5742 49.433 11.4864C49.8106 11.3986 50.0916 11.1966 50.2673 10.8804C50.3551 10.7136 50.4078 10.538 50.4166 10.3535C50.4166 10.1691 50.3902 9.98469 50.3112 9.80906L50.9259 10.1516L50.9083 10.1252ZM49.354 9.43144C49.4857 9.50169 49.5647 9.6422 49.5823 9.8354C49.5998 10.0286 49.5559 10.2218 49.4506 10.415C49.3452 10.6082 49.2047 10.7487 49.029 10.8365C48.8534 10.9244 48.6953 10.9331 48.5636 10.8541C48.4319 10.7838 48.3616 10.6521 48.3353 10.4501C48.3177 10.2569 48.3528 10.0549 48.467 9.86175C48.5724 9.66855 48.7217 9.52804 48.8973 9.44022C49.0729 9.36118 49.231 9.3524 49.354 9.42266V9.43144Z" fill="white"/>
<path d="M56.7305 16.062L54.86 17.5285L54.2804 16.7821L53.8501 17.1158L57.0906 21.2608L57.5209 20.9271L56.2914 19.3552L58.162 17.8886L57.5912 17.1597L55.7206 18.6263L55.4308 18.2487L57.3014 16.7821L56.7305 16.0532V16.062ZM57.5824 14.7535L59.6198 17.3617L58.3552 18.3452C58.0039 18.6175 57.7141 18.8283 57.4682 18.9863C57.2311 19.1444 56.9852 19.2322 56.7481 19.2586L57.2662 19.926C57.4858 19.8996 57.7317 19.8206 57.9951 19.6889C58.2674 19.5571 58.5572 19.3727 58.8733 19.1268L60.6297 17.7569L58.0127 14.4022L57.5824 14.7359V14.7535Z" fill="white"/>
<path d="M8.44805 44.014C8.75542 43.891 8.97497 43.7066 9.08913 43.4519C9.20329 43.1972 9.22086 42.9338 9.13304 42.6528C9.01887 42.2752 8.78176 42.0293 8.41293 41.9151C8.04409 41.7922 7.64891 41.8009 7.22738 41.9327C6.80585 42.0644 6.47214 42.2752 6.23503 42.5825C5.99792 42.8899 5.93645 43.2236 6.04183 43.6012C6.13843 43.9086 6.32285 44.1193 6.60387 44.2423C6.88489 44.3652 7.20103 44.3828 7.56109 44.295L7.42936 43.8647C7.20982 43.9174 7.00783 43.9086 6.82342 43.8471C6.639 43.7856 6.51605 43.6627 6.46336 43.4607C6.38432 43.1885 6.43701 42.9601 6.639 42.7757C6.8322 42.5825 7.07809 42.4508 7.35911 42.363C7.64013 42.2752 7.92114 42.2576 8.1846 42.3015C8.45684 42.3454 8.63247 42.5035 8.71151 42.7757C8.7642 42.9601 8.75542 43.1182 8.67638 43.2499C8.59735 43.3817 8.4744 43.4958 8.31633 43.5837L8.44805 44.0227V44.014Z" fill="white"/>
<path d="M6.58643 45.1543L6.75328 45.5846L8.04421 45.0577L8.49208 46.1642L7.20115 46.6824L7.36801 47.1039L10.2309 45.9535L10.064 45.5232L8.92239 45.9886L8.47452 44.8821L9.61616 44.4254L9.4493 44.0039L6.58643 45.1543Z" fill="white"/>
<path d="M8.6323 47.2365C8.28103 47.4209 8.07026 47.6493 7.98244 47.9127C7.90341 48.1762 7.93854 48.4572 8.08783 48.7382C8.23712 49.0192 8.44788 49.2037 8.71134 49.2827C8.97479 49.3617 9.28216 49.309 9.63343 49.1246L11.381 48.1938L11.1703 47.7898L9.58074 48.6328C9.39632 48.7294 9.20312 48.7997 9.00992 48.8436C8.80794 48.8875 8.64108 48.7734 8.50057 48.5099C8.36006 48.2464 8.36884 48.0445 8.50935 47.9039C8.65865 47.7634 8.81672 47.6405 9.00114 47.5439L10.5906 46.7008L10.3799 46.2969L8.6323 47.2277V47.2365Z" fill="white"/>
<path d="M8.94873 50.2603L9.18584 50.6204L11.0915 49.3909V49.3997L9.8357 51.6303L10.0992 52.0343L12.6898 50.3481L12.4527 49.9881L10.547 51.2263L10.5382 51.2175L11.8028 48.9782L11.5394 48.5742L8.94873 50.2603Z" fill="white"/>
<path d="M13.1376 53.3334L12.4351 52.4728L12.1189 52.7275L12.558 53.2632C12.356 53.43 12.154 53.5091 11.9521 53.5091C11.7501 53.5091 11.5832 53.4125 11.4339 53.2281C11.2583 53.0085 11.2319 52.7714 11.3373 52.5255C11.4427 52.2796 11.6183 52.0601 11.8467 51.8756C12.075 51.6912 12.3297 51.5683 12.5931 51.5068C12.8566 51.4541 13.0849 51.5332 13.2605 51.7439C13.3659 51.8756 13.4186 52.0162 13.4186 52.183C13.4186 52.3499 13.3484 52.5079 13.2079 52.6485L13.4889 52.9909C13.7348 52.7451 13.8665 52.4816 13.8665 52.2094C13.8665 51.9283 13.7787 51.6824 13.603 51.4629C13.3571 51.1555 13.041 51.0238 12.6546 51.0502C12.2682 51.0765 11.8994 51.2346 11.5569 51.5068C11.2144 51.7878 10.9861 52.1128 10.8807 52.4816C10.7753 52.8504 10.8455 53.1929 11.0827 53.4915C11.1793 53.6145 11.2934 53.7023 11.4251 53.755C11.5481 53.8077 11.7149 53.834 11.9169 53.8252L11.6798 54.1062L11.8642 54.3346L13.1288 53.3071L13.1376 53.3334Z" fill="white"/>
<path d="M16.5801 56.1494C16.7909 55.886 16.8787 55.6137 16.8524 55.3415C16.826 55.0692 16.7031 54.8234 16.4923 54.6214C16.2113 54.3491 15.8776 54.2613 15.5 54.3403C15.1224 54.4194 14.7799 54.6214 14.4813 54.9463C14.1827 55.2712 14.0071 55.6225 13.9456 56.0089C13.8929 56.3953 14.0071 56.7202 14.2881 56.9837C14.5164 57.2032 14.7886 57.291 15.096 57.2647C15.4034 57.2296 15.6844 57.0891 15.9566 56.8344L15.6317 56.527C15.4648 56.6763 15.2892 56.7729 15.096 56.8168C14.9028 56.852 14.736 56.808 14.5867 56.6675C14.3847 56.4743 14.3144 56.246 14.3935 55.9826C14.4725 55.7191 14.6042 55.482 14.8062 55.2624C15.0082 55.0429 15.2365 54.8936 15.5 54.797C15.7546 54.7004 15.9918 54.7531 16.1937 54.9463C16.3342 55.078 16.3957 55.2185 16.3957 55.3678C16.3957 55.5259 16.343 55.6752 16.2464 55.8333L16.5801 56.1406V56.1494Z" fill="white"/>
<path d="M15.5791 58.0498L15.9392 58.3308L16.7998 57.233L17.7394 57.9619L16.8788 59.0597L17.2389 59.3407L19.1357 56.9081L18.7757 56.6271L18.0205 57.5931L17.0896 56.8642L17.8448 55.8982L17.4848 55.6172L15.5791 58.0498Z" fill="white"/>
<path d="M17.792 59.7967L19.3991 60.8066L19.6537 60.4114L18.4243 59.6474L18.8985 58.8746L20.0138 59.5771L20.2509 59.1995L19.1356 58.5057L19.5659 57.8208L20.769 58.576L21.0149 58.172L19.4254 57.1797L17.792 59.7967Z" fill="white"/>
<path d="M22.2881 58.8025C21.9368 58.6269 21.5943 58.6269 21.2518 58.8113C20.9093 58.9957 20.6371 59.2855 20.4351 59.6719C20.2331 60.0671 20.1629 60.4535 20.2156 60.8399C20.2683 61.2263 20.4703 61.5073 20.8127 61.683C21.164 61.8586 21.5065 61.8586 21.849 61.683C22.1915 61.4985 22.4637 61.2087 22.6569 60.8136C22.8589 60.4184 22.9292 60.032 22.8765 59.6456C22.8238 59.2592 22.6218 58.9782 22.2705 58.8025H22.2881ZM22.0861 59.1977C22.332 59.3207 22.4637 59.5226 22.4637 59.7949C22.4637 60.0671 22.3935 60.3393 22.2617 60.6028C22.13 60.8663 21.9456 61.077 21.7261 61.2439C21.5065 61.4019 21.2694 61.4195 21.0235 61.2966C20.7776 61.1736 20.6459 60.9716 20.6459 60.6994C20.6459 60.4272 20.7161 60.1549 20.8479 59.8915C20.9796 59.628 21.164 59.4173 21.3836 59.2504C21.6031 59.0923 21.8402 59.0748 22.0861 59.1977Z" fill="white"/>
<path d="M22.4287 62.4547L22.8327 62.6127L23.6494 60.4963H23.6582L23.948 63.043L24.4046 63.2187L25.5111 60.3295L25.1072 60.1802L24.2905 62.2966H24.2817L23.9831 59.7499L23.5352 59.5742L22.4287 62.4547Z" fill="white"/>
<path d="M27.5927 62.538L26.5213 62.2482L26.416 62.6434L27.0834 62.8279C27.0131 63.0825 26.899 63.2669 26.7409 63.3811C26.5828 63.4953 26.3896 63.5216 26.1613 63.4601C25.8891 63.3811 25.731 63.2143 25.6695 62.9508C25.608 62.6873 25.6256 62.4063 25.6959 62.1253C25.7749 61.8355 25.9066 61.5896 26.0823 61.3876C26.2667 61.1856 26.495 61.1154 26.7672 61.1944C26.9253 61.2383 27.057 61.3262 27.1536 61.4579C27.2502 61.5896 27.2854 61.7565 27.259 61.9585L27.6893 62.0726C27.7508 61.7301 27.6893 61.4403 27.54 61.212C27.382 60.9837 27.1624 60.8344 26.8902 60.7641C26.5126 60.6587 26.1789 60.7378 25.8803 60.9924C25.5817 61.2471 25.3797 61.5808 25.2655 62.0111C25.1514 62.4327 25.1602 62.8278 25.2919 63.1967C25.4236 63.5655 25.6783 63.7939 26.0559 63.8992C26.2052 63.9431 26.3545 63.9431 26.4862 63.9168C26.6179 63.8905 26.7672 63.8114 26.9253 63.6797L26.899 64.0485L27.18 64.1276L27.6015 62.5556L27.5927 62.538Z" fill="white"/>
<path d="M29.5947 64.6528L30.0514 64.723L30.2621 63.3706L31.4301 63.555L31.5004 63.1159L30.3324 62.9315L30.4553 62.1324L31.7902 62.3431L31.8604 61.8865L30.0777 61.6055L29.5947 64.6528Z" fill="white"/>
<path d="M31.8955 64.9768L32.3522 65.0031L32.5629 61.9207L32.1063 61.8944L31.8955 64.9768Z" fill="white"/>
<path d="M33.5816 62.4469H34.3193C34.4422 62.4645 34.5476 62.4908 34.6354 62.5523C34.7232 62.6138 34.7672 62.7455 34.7672 62.9387C34.7672 63.0968 34.7233 63.2197 34.6442 63.3075C34.5652 63.3866 34.451 63.4305 34.3105 63.4305H33.564L33.5816 62.4557V62.4469ZM33.081 65.0815H33.5377L33.564 63.8169H34.2403C34.451 63.8344 34.5915 63.9047 34.653 64.0364C34.7233 64.1681 34.7496 64.3789 34.7408 64.6599C34.7408 64.7302 34.7408 64.8092 34.7408 64.897C34.7408 64.9761 34.7672 65.0551 34.7935 65.1166H35.2853C35.2414 65.0639 35.2063 64.9497 35.1799 64.8004C35.1623 64.6511 35.1536 64.4843 35.1536 64.3087C35.1536 64.0628 35.1184 63.8959 35.0306 63.8081C34.9428 63.7203 34.855 63.6676 34.7847 63.65C34.7847 63.65 34.9077 63.5622 35.0306 63.4656C35.1536 63.369 35.2238 63.167 35.2238 62.8684C35.2238 62.605 35.1623 62.403 35.0131 62.2537C34.8725 62.1044 34.653 62.0254 34.372 62.0254L33.125 62.0078L33.0723 65.099L33.081 65.0815Z" fill="white"/>
<path d="M35.8123 65.1517L37.7092 65.0199L37.6829 64.5545L36.2339 64.6511L36.1724 63.7466L37.4897 63.6587L37.4545 63.2196L36.146 63.3075L36.0846 62.4995L37.5072 62.4029L37.4721 61.9375L35.6016 62.0692L35.8123 65.1517Z" fill="white"/>
<path d="M39.7906 63.7028C39.8521 64.0804 40.0102 64.3438 40.2473 64.4844C40.4844 64.6249 40.7478 64.6688 41.0464 64.6249C41.3011 64.581 41.5294 64.4756 41.7138 64.2912C41.907 64.1067 41.9685 63.8433 41.9158 63.5096C41.8895 63.3515 41.828 63.2022 41.7226 63.0617C41.6172 62.9212 41.4767 62.8421 41.2923 62.807C41.2221 62.7982 41.0815 62.7719 40.862 62.7455C40.6512 62.7104 40.5283 62.6929 40.5107 62.6929C40.4141 62.6753 40.3351 62.6402 40.2648 62.5875C40.1946 62.5348 40.1595 62.4558 40.1419 62.3504C40.1155 62.2011 40.1507 62.0869 40.2473 62.0079C40.3439 61.9376 40.4493 61.8937 40.5459 61.8761C40.7039 61.8498 40.8357 61.8761 40.9498 61.9376C41.064 61.9991 41.143 62.1308 41.1869 62.324L41.6348 62.2538C41.5821 61.9376 41.4504 61.7093 41.2308 61.5776C41.0113 61.4458 40.7654 61.3931 40.4932 61.4371C40.2561 61.4722 40.0541 61.5776 39.8784 61.762C39.7028 61.9376 39.6413 62.1835 39.694 62.4821C39.7204 62.6402 39.7818 62.7807 39.8872 62.9124C39.9926 63.0441 40.1595 63.1232 40.3878 63.1671C40.5722 63.1934 40.7303 63.2198 40.862 63.2373C40.9937 63.2549 41.0991 63.2725 41.1957 63.2988C41.2484 63.3164 41.3099 63.3427 41.3626 63.3954C41.4153 63.4481 41.4504 63.5271 41.468 63.6413C41.4855 63.7555 41.468 63.8696 41.3977 63.975C41.3274 64.0892 41.1957 64.1594 40.9937 64.1858C40.8093 64.2121 40.6512 64.1858 40.5107 64.1067C40.3702 64.0277 40.2736 63.8696 40.2385 63.6325L39.7906 63.7028V63.7028Z" fill="white"/>
<path d="M42.5306 64.1856L44.366 63.6675L44.2342 63.2108L42.8467 63.6148L42.592 62.7454L43.8566 62.3853L43.7424 61.955L42.4779 62.3239L42.2495 61.5423L43.6195 61.1471L43.4878 60.6992L41.6875 61.2173L42.5306 64.1856Z" fill="white"/>
<path d="M44.4009 60.8425L45.0946 60.579C45.2088 60.5351 45.3142 60.5263 45.4196 60.5527C45.5249 60.579 45.6128 60.6756 45.683 60.8601C45.7445 61.0093 45.7533 61.1411 45.7094 61.2465C45.6655 61.3518 45.5776 61.4309 45.4459 61.4836L44.7434 61.7558L44.4009 60.8513V60.8425ZM44.919 63.477L45.3493 63.3102L44.8927 62.1246L45.5249 61.8875C45.7181 61.8085 45.8762 61.8261 45.9816 61.9227C46.0958 62.0193 46.2011 62.2037 46.2977 62.4671C46.3241 62.5374 46.3504 62.6076 46.3856 62.6779C46.4207 62.7481 46.4646 62.8096 46.5173 62.8623L46.9739 62.6867C46.9037 62.6428 46.8334 62.5549 46.7544 62.4232C46.6754 62.2915 46.6139 62.1422 46.5436 61.9753C46.4558 61.747 46.3504 61.6065 46.2363 61.5538C46.1221 61.5011 46.0255 61.4836 45.9465 61.5011C45.9465 61.5011 46.0343 61.3782 46.1133 61.2377C46.1924 61.0972 46.1748 60.8864 46.0694 60.6142C45.9728 60.3683 45.8323 60.2014 45.6479 60.1224C45.4635 60.0346 45.2351 60.0433 44.9629 60.1487L43.7949 60.5966L44.9014 63.477H44.919Z" fill="white"/>
<path d="M47.7732 62.3273L48.2387 62.1165L47.7996 58.9375L47.378 59.1219L47.7557 61.6335L46.1574 59.6664L45.7271 59.8596L47.7732 62.3273Z" fill="white"/>
<path d="M49.3801 61.4546L49.7841 61.2351L48.2824 58.5391L47.8872 58.7586L49.3801 61.4546Z" fill="white"/>
<path d="M51.1452 57.9696C50.9432 57.6973 50.7061 57.5392 50.4339 57.4953C50.1617 57.4514 49.8982 57.5041 49.6435 57.6622C49.3098 57.8642 49.1342 58.1628 49.1166 58.5492C49.0991 58.9356 49.2044 59.322 49.4416 59.6908C49.6787 60.0684 49.9685 60.3319 50.3285 60.4812C50.6886 60.6305 51.0311 60.6041 51.356 60.4021C51.6282 60.2353 51.7863 59.9982 51.8302 59.6908C51.8829 59.3834 51.8126 59.0761 51.6282 58.7511L51.2506 58.9882C51.356 59.1902 51.3999 59.3834 51.3911 59.5766C51.3823 59.7698 51.2857 59.9191 51.1189 60.0245C50.8818 60.1738 50.6447 60.1738 50.4076 60.0333C50.1704 59.8928 49.9772 59.6996 49.8192 59.4449C49.6611 59.1902 49.5733 58.9268 49.5469 58.6545C49.5206 58.3823 49.626 58.1715 49.8719 58.0222C50.0299 57.9256 50.188 57.8905 50.3373 57.9344C50.4866 57.9783 50.6271 58.0662 50.75 58.1979L51.1364 57.952L51.1452 57.9696Z" fill="white"/>
<path d="M52.7084 59.4433L54.2101 58.2666L53.9203 57.8977L52.7786 58.7935L52.2254 58.0821L53.2617 57.2742L52.9894 56.9229L51.9532 57.7309L51.4526 57.0986L52.5767 56.2204L52.2869 55.8516L50.8027 57.0108L52.7084 59.4433Z" fill="white"/>
<path d="M54.7989 54.2095L56.0283 54.8506L55.4751 55.4214L54.7901 54.2183L54.7989 54.2095ZM55.7824 56.8704L56.1074 56.5279L55.6858 55.7815L56.4059 55.035L57.1612 55.4302L57.5037 55.0789L54.5881 53.6562L54.2544 54.0075L55.7824 56.8704V56.8704Z" fill="white"/>
<path d="M57.4333 51.9536C57.1699 51.7517 56.8976 51.6638 56.6166 51.699C56.3444 51.7341 56.1073 51.857 55.9053 52.0766C55.6418 52.3664 55.554 52.7001 55.6418 53.0777C55.7296 53.4553 55.9404 53.7978 56.2653 54.0876C56.5903 54.3862 56.9503 54.5531 57.3367 54.6057C57.7231 54.6584 58.048 54.5355 58.3027 54.2457C58.5135 54.0086 58.6013 53.7363 58.5662 53.429C58.531 53.1216 58.3818 52.8406 58.1183 52.5771L57.8197 52.9109C57.9778 53.0777 58.0744 53.2533 58.1183 53.4378C58.1622 53.6222 58.1183 53.7978 57.9778 53.9471C57.7934 54.1579 57.565 54.2281 57.3016 54.1491C57.0381 54.0788 56.7922 53.9471 56.5727 53.7451C56.3531 53.5431 56.1951 53.3236 56.0985 53.0601C56.0019 52.8055 56.0458 52.5771 56.2302 52.3664C56.3619 52.2259 56.5024 52.1556 56.6517 52.1556C56.8098 52.1556 56.9591 52.1995 57.126 52.2961L57.4333 51.9536V51.9536Z" fill="white"/>
<path d="M57.6441 50.7515V50.7428L58.9438 51.2082L58.4783 51.8493L57.6353 50.7515H57.6441ZM58.9877 53.2544L59.2687 52.8767L58.7506 52.2005L59.3653 51.3575L60.1732 51.6385L60.463 51.2433L57.3718 50.2422L57.082 50.6374L58.9877 53.2631V53.2544Z" fill="white"/>
<path d="M58.5835 49.1703L58.8118 48.7839C58.9875 48.4766 59.1982 48.3273 59.4441 48.3361C59.6812 48.3449 59.9359 48.4327 60.2081 48.582C60.4716 48.74 60.6736 48.9157 60.8053 49.1177C60.937 49.3196 60.9107 49.5743 60.7263 49.8905L60.4979 50.2769L58.5923 49.1703H58.5835ZM60.6472 50.8916L61.1917 49.9519C61.3937 49.6007 61.4112 49.2757 61.2356 48.9684C61.0688 48.661 60.7965 48.3975 60.4277 48.1868C60.0588 47.976 59.6988 47.8706 59.3475 47.8794C58.9962 47.8794 58.7152 48.0638 58.522 48.4151L57.9775 49.3548L60.6472 50.9004V50.8916Z" fill="white"/>
<path d="M61.9996 48.4565L62.8076 46.7353L62.3773 46.5333L61.7713 47.8506L60.9546 47.4642L61.5079 46.2698L61.1039 46.0854L60.5506 47.2797L59.8218 46.9373L60.4189 45.6463L59.9974 45.4531L59.1982 47.1568L61.9996 48.4565Z" fill="white"/>
<path d="M63.0274 46.1749L63.1679 45.7621L60.911 44.9893V44.9806L63.405 45.0684L63.5279 44.7171L61.5081 43.2593V43.2505L63.765 44.0233L63.9056 43.6106L60.9812 42.6095L60.7792 43.2066L62.8342 44.6556V44.6644L60.3138 44.559L60.103 45.165L63.0274 46.1749Z" fill="white"/>
<path d="M64.2566 42.2238L64.362 41.7847L63.1852 41.4862L61.6045 40.0898L61.4815 40.5816L62.6583 41.574L61.1478 41.9165L61.0161 42.4258L63.0798 41.934L64.2566 42.2238Z" fill="white"/>
<path fill-rule="evenodd" clip-rule="evenodd" d="M39.5971 58.7749H39.439C38.4994 58.8539 37.7705 58.731 37.0504 58.3797C36.4181 58.0811 35.8121 58.2567 35.4872 58.5641L35.3643 58.6871L35.2413 58.5641C34.9164 58.2567 34.3105 58.0811 33.6782 58.3797C32.9581 58.7222 32.2467 58.8451 31.2895 58.7749H31.1226V53.1984L31.3334 53.2423C32.0535 53.4004 32.598 53.1896 33.1249 52.9789C33.5025 52.8296 33.8538 52.6978 34.249 52.6978C34.6969 52.6978 35.0745 52.8384 35.3555 53.0755C35.6453 52.8296 36.0317 52.6978 36.462 52.6978C36.8572 52.6978 37.2172 52.8384 37.5861 52.9789C38.113 53.1896 38.6487 53.4004 39.3776 53.2423L39.5883 53.1984V58.7661L39.5971 58.7749ZM39.2898 52.7681C38.7102 52.891 38.2798 52.7242 37.7881 52.531C37.3841 52.3641 36.9714 52.2148 36.4796 52.2148C36.0668 52.2148 35.6892 52.3202 35.3731 52.4959C35.0569 52.3202 34.6793 52.2148 34.2665 52.2148C33.7748 52.2148 33.3708 52.3729 32.9668 52.531C32.4663 52.7242 32.0447 52.8998 31.4651 52.7681L30.6396 52.5837V59.2403L31.2719 59.2842C32.3082 59.3369 33.0986 59.2052 33.9065 58.8188C34.3105 58.6256 34.7144 58.7485 34.9076 58.9329L35.3643 59.372L35.8297 58.9329C36.0229 58.7485 36.4269 58.6256 36.8308 58.8188C37.6388 59.2052 38.4291 59.3369 39.4654 59.2842L40.0977 59.2403V52.5837L39.281 52.7681H39.2898Z" fill="white"/>
<path fill-rule="evenodd" clip-rule="evenodd" d="M35.4962 53.4401C35.7157 53.1854 36.067 53.0625 36.471 53.0625C36.8047 53.0625 37.1208 53.1854 37.4633 53.3172C37.9639 53.5192 38.5259 53.7211 39.2548 53.6245V58.4545C38.4381 58.4809 37.8322 58.3667 37.1911 58.0594C36.4885 57.7344 35.7948 57.9013 35.3557 58.2262C34.9254 57.8925 34.2404 57.7257 33.5291 58.0594C32.9056 58.3667 32.2821 58.4809 31.4741 58.4545V53.6245C32.1942 53.7211 32.7563 53.5104 33.2568 53.3172C33.5993 53.1854 33.9243 53.0625 34.2492 53.0625C34.6619 53.0625 35.0132 53.1854 35.224 53.4401L35.3557 53.5894L35.4874 53.4401H35.4962Z" fill="white"/>
<path fill-rule="evenodd" clip-rule="evenodd" d="M33.3975 56.7414C33.2921 56.7414 33.2219 56.7238 33.1516 56.7062C33.0462 56.6887 33.0287 56.6096 33.0199 56.513C33.0111 56.3901 33.0111 55.7139 33.0111 55.5295C33.0111 54.9762 33.0111 54.8884 33.0287 54.7655C33.0287 54.7655 32.9935 54.7391 32.9672 54.7479C32.8442 54.8094 32.5369 54.8884 32.3612 54.906C32.3437 54.9147 32.3349 55.0113 32.3525 55.0289C32.4315 55.0289 32.5281 55.0289 32.572 55.0465C32.6598 55.0465 32.6774 55.0904 32.6774 55.1431V56.5218C32.6774 56.6009 32.6598 56.6711 32.5369 56.6975C32.4754 56.7062 32.37 56.715 32.2734 56.7326C32.2559 56.7501 32.2559 56.8555 32.2734 56.8643H33.3712C33.3712 56.8643 33.3887 56.7414 33.3799 56.7238L33.3975 56.7414Z" fill="#005CA9"/>
<path fill-rule="evenodd" clip-rule="evenodd" d="M34.0032 57.0391C34.7234 56.8284 35.2678 56.3015 35.2678 55.6077C35.2678 55.1598 35.0219 54.7734 34.5741 54.7734C34.416 54.7734 34.2579 54.8173 34.135 54.9052C33.9154 55.0545 33.7925 55.3004 33.7925 55.5375C33.7925 55.9063 34.0472 56.1961 34.3545 56.1961C34.4775 56.1961 34.6707 56.1346 34.8375 56.038C34.8375 56.038 34.8551 56.038 34.8551 56.0556C34.697 56.3893 34.4862 56.6615 33.9418 56.925C33.9418 56.9513 33.9769 57.0479 34.0032 57.0479V57.0391ZM34.4862 54.9315C34.7497 54.9315 34.9341 55.2125 34.9341 55.6077C34.9341 55.6692 34.9341 55.7131 34.9078 55.8097C34.9078 55.8273 34.8726 55.88 34.8375 55.8975C34.776 55.9326 34.697 55.959 34.5741 55.959C34.3194 55.959 34.1086 55.7833 34.1086 55.4057C34.1086 55.1335 34.2491 54.9315 34.4862 54.9315Z" fill="#005CA9"/>
<path fill-rule="evenodd" clip-rule="evenodd" d="M35.7156 57.0391C36.4358 56.8284 36.9802 56.3015 36.9802 55.6077C36.9802 55.1598 36.7343 54.7734 36.2865 54.7734C36.1284 54.7734 35.9703 54.8173 35.8474 54.9052C35.6278 55.0545 35.5049 55.3004 35.5049 55.5375C35.5049 55.9063 35.7596 56.1961 36.0669 56.1961C36.1899 56.1961 36.3831 56.1346 36.5499 56.038C36.5499 56.038 36.5675 56.038 36.5675 56.0556C36.4094 56.3893 36.1986 56.6615 35.6542 56.925C35.6542 56.9513 35.6893 57.0479 35.7156 57.0479V57.0391ZM36.1986 54.9315C36.4621 54.9315 36.6465 55.2125 36.6465 55.6077C36.6465 55.6692 36.6465 55.7131 36.6202 55.8097C36.6202 55.8273 36.585 55.88 36.5499 55.8975C36.4884 55.9326 36.4094 55.959 36.2865 55.959C36.0318 55.959 35.821 55.7833 35.821 55.4057C35.821 55.1335 35.9615 54.9315 36.1986 54.9315Z" fill="#005CA9"/>
<path fill-rule="evenodd" clip-rule="evenodd" d="M37.9462 54.7617C37.6827 54.7617 37.4368 54.9813 37.3227 55.113C37.3227 55.1393 37.3666 55.2272 37.3929 55.2272C37.5159 55.113 37.6476 55.034 37.8057 55.034C37.9989 55.034 38.1482 55.1569 38.1482 55.3764C38.1482 55.5696 38.0164 55.7102 37.6827 55.7716C37.674 55.7716 37.6213 55.9121 37.63 55.9297C37.674 55.9297 37.7266 55.9297 37.753 55.9297C38.0691 55.9297 38.315 56.1317 38.315 56.4215C38.315 56.7201 38.1043 56.843 37.8847 56.843C37.7793 56.843 37.6827 56.8255 37.5949 56.7815C37.4983 56.7289 37.4193 56.641 37.349 56.5093C37.3315 56.5093 37.2436 56.5532 37.2349 56.5708C37.2524 56.6849 37.2876 56.7903 37.3227 56.843C37.3666 56.9133 37.3929 56.9396 37.4368 56.9572C37.4983 56.9923 37.6125 57.0099 37.7354 57.0099C37.9286 57.0099 38.0955 56.966 38.2623 56.8606C38.4819 56.7376 38.64 56.5093 38.64 56.2546C38.64 55.9385 38.3765 55.7804 38.157 55.7102V55.6926C38.3062 55.5872 38.4468 55.4643 38.4468 55.2447C38.4468 54.99 38.2536 54.7617 37.9286 54.7617H37.9462Z" fill="#005CA9"/>
<path fill-rule="evenodd" clip-rule="evenodd" d="M56.0103 45.9211C56.5373 44.876 56.0806 44.112 55.5273 43.5851C55.3517 44.1384 54.8248 44.4984 53.7446 44.9024C53.7534 44.1647 54.1662 43.3656 55.1322 42.8562C56.1333 42.3117 56.6865 41.8639 56.8358 41.3984C57.152 41.7058 57.3627 42.18 57.3627 42.663C57.3627 43.0582 57.3452 43.5412 57.0027 43.831C57.3803 43.6729 57.9511 43.4709 58.3551 42.9967C58.882 44.0945 58.0389 45.2449 57.0729 45.7894C57.0729 45.7367 57.0642 45.6752 57.0466 45.6313L56.9061 45.1044C56.8007 45.3766 56.4143 45.7103 56.0103 45.9299V45.9211Z" fill="#FCBF00"/>
<path fill-rule="evenodd" clip-rule="evenodd" d="M48.8708 53.3481C49.4592 52.9178 49.9158 52.1977 49.626 51.1351C48.9849 51.6883 47.8784 51.7761 46.7192 51.864C47.132 51.1351 47.5974 50.5555 48.9849 50.1778C50.3725 49.8002 50.9784 49.5104 51.3121 49.1328C51.7249 49.9759 51.0136 51.2053 50.4252 51.46C50.8906 51.381 51.6371 51.258 52.1025 50.9594V50.9858C52.1815 52.3294 50.7325 53.2076 49.5909 53.4886C49.5909 53.4798 49.7665 52.9705 49.7665 52.9705C49.4153 53.1988 49.064 53.2954 48.862 53.3657L48.8708 53.3481Z" fill="#FCBF00"/>
<path fill-rule="evenodd" clip-rule="evenodd" d="M57.6529 43.2076C57.7143 43.0232 57.7758 42.83 57.7758 42.628C57.7758 41.9518 57.3543 41.2405 56.6781 40.8541C56.5639 41.4074 56.2566 41.8025 55.5277 42.2592C55.2554 41.5654 55.3696 40.8453 56.1775 40.0462C57.1962 39.045 57.205 38.3952 57.003 38C58.0744 38.4479 58.9262 39.651 58.2237 40.6433C58.6452 40.3623 59.0492 39.73 59.0843 39.1943C59.8132 40.0286 60.305 41.6269 58.7594 42.8827C58.7155 42.8037 58.4257 42.1889 58.4257 42.1889C58.3554 42.4875 58.0656 42.9266 57.6529 43.2076V43.2076Z" fill="#FCBF00"/>
<path fill-rule="evenodd" clip-rule="evenodd" d="M53.9469 48.3089C54.5353 47.378 54.1313 46.491 53.499 45.9378C53.3146 46.4998 52.7438 46.8423 51.7515 47.2024C51.8744 46.4735 52.4804 45.7095 53.6308 45.2967C54.7285 44.9015 55.3345 44.5415 55.5979 44.1638C55.7472 44.4097 55.8438 44.6908 55.8438 45.0157C55.8438 45.5426 55.6769 46.2188 55.1676 46.5349C55.5891 46.4032 56.2917 46.2012 56.6869 45.8675C57.0469 46.8511 56.1073 47.9752 55.0798 48.3791C55.0798 48.2474 54.9568 47.4219 54.9568 47.4219C54.8515 47.6854 54.4211 48.0805 53.9557 48.3089H53.9469Z" fill="#FCBF00"/>
<path fill-rule="evenodd" clip-rule="evenodd" d="M40.0977 55.8089C40.0977 55.5981 40.2469 54.9483 41.1515 54.5092C41.4588 54.3687 41.8628 54.2457 42.3282 54.1667C42.5214 54.1316 42.7234 54.1052 42.943 54.0965L44.1022 54.0438C44.9804 54.0262 45.6653 53.9999 46.1308 53.8242C46.0166 54.597 45.2526 55.6157 43.8563 55.844C44.3129 55.9055 44.9101 55.9582 45.4721 55.8177C44.9716 56.45 43.8738 57.2491 42.1526 57.2667C41.5818 57.2667 40.8265 57.135 40.1064 56.7398V55.7913L40.0977 55.8089Z" fill="#FCBF00"/>
<path fill-rule="evenodd" clip-rule="evenodd" d="M46.5439 53.3248C45.7536 53.799 45.2091 53.7112 44.1641 53.7463L43.5757 53.7727C43.9972 53.1053 44.8578 52.3325 46.5527 52.1656C47.8788 52.0339 48.6516 52.0514 49.3717 51.6562V51.6826C49.3717 52.4027 48.8887 53.4917 47.6153 53.72C48.0808 53.7375 48.6516 53.7375 49.1522 53.5531C48.915 54.8265 47.4485 55.4412 46.1312 55.6695L46.3332 55.2305C46.3332 55.2305 45.8414 55.5115 45.1828 55.6169C46.1049 55.1339 46.6845 54.3171 46.5615 53.316L46.5439 53.3248Z" fill="#FCBF00"/>
<path fill-rule="evenodd" clip-rule="evenodd" d="M53.1211 48.8789C53.5426 48.7647 54.2452 48.5715 54.6492 48.2554C54.8424 49.52 53.7271 50.3894 52.5064 50.8197C52.5064 50.6177 52.48 50.2137 52.48 50.2137C52.2605 50.5035 51.9443 50.7231 51.3033 51.0041C52.2781 49.9766 51.6019 48.8789 51.3208 48.5628C51.1101 49.0458 50.548 49.3619 49.5908 49.6605C49.6962 48.7472 50.4339 47.9919 51.5053 47.6055C52.6206 47.2191 53.1387 46.9996 53.5163 46.5078C53.8149 46.9645 54.0608 47.8075 53.1036 48.8789H53.1211Z" fill="#FCBF00"/>
</g>
<defs>
<clipPath id="clip0_1278_1086">
<rect width="258.203" height="70" fill="white"/>
</clipPath>
</defs>
</svg>
